<?xml version="1.0" encoding="UTF-8" standalone="no"?>
<svg
   xmlns:dc="http://purl.org/dc/elements/1.1/"
   xmlns:cc="http://creativecommons.org/ns#"
   xmlns:rdf="http://www.w3.org/1999/02/22-rdf-syntax-ns#"
   xmlns:svg="http://www.w3.org/2000/svg"
   xmlns="http://www.w3.org/2000/svg"
   viewBox="0 0 666.66669 666.66669"
   height="666.66669"
   width="666.66669"
   xml:space="preserve"
   id="svg2"
   version="1.1"><metadata
     id="metadata8"><rdf:RDF><cc:Work
         rdf:about=""><dc:format>image/svg+xml</dc:format><dc:type
           rdf:resource="http://purl.org/dc/dcmitype/StillImage" /></cc:Work></rdf:RDF></metadata><defs
     id="defs6" /><g
     transform="matrix(1.3333333,0,0,-1.3333333,0,666.66667)"
     id="g10"><g
       transform="scale(0.1)"
       id="g12"><path
         id="path14"
         style="fill:#ffffff;fill-opacity:1;fill-rule:nonzero;stroke:none"
         d="M 5000,0 H 0 V 5000 H 5000 V 0" /><path
         id="path16"
         style="fill:#e9ecf8;fill-opacity:1;fill-rule:nonzero;stroke:none"
         d="M 4640.82,693.738 C 4640.82,461.059 4333.41,569.91 3221.28,494.309 1021.24,344.73 602.652,587.52 591.988,693.738 565.336,959.262 844.785,2027.2 2738.53,1914.14 3852.02,1847.67 4640.82,834.262 4640.82,693.738" /><path
         id="path18"
         style="fill:#dee2f4;fill-opacity:1;fill-rule:nonzero;stroke:none"
         d="m 992.113,1738.71 c -232.91,217.33 14.937,443.7 53.227,680.75 33.1,204.94 -107.082,377.36 -127.449,574.02 -24.457,236.25 124.039,287.5 293.889,389.42 122.66,73.59 193.05,168.93 243.2,305.98 68.25,186.5 128.27,502.73 392.12,398.13 127.32,-50.48 152.66,-208.9 264.7,-277.72 174.32,-107.02 360,42.08 499.96,141.4 315.81,224.15 922.8,93.6 971.91,-356.58 18.04,-165.48 63.5,-269.76 203.51,-355.74 161.33,-99.06 379.23,-169.07 311.78,-406.19 -45.45,-159.82 -234.31,-274.76 -185.3,-459.77 41.52,-156.62 235.3,-263.4 279.6,-431.29 41.7,-158.13 -54.02,-264.77 -158.13,-368.13 -221.76,-220.1 -484.42,-358.34 -738.45,-530.31 C 3130.06,929.891 2950.6,810.789 2758.51,750.129 2430.65,646.559 2225.9,857.68 2064.31,1124.42 c -105.45,174.1 -227.19,358.42 -419.64,436.97 -211.86,86.46 -470.11,7.08 -652.557,177.32" /><path
         id="path20"
         style="fill:none;stroke:#dee2f4;stroke-width:10;stroke-linecap:butt;stroke-linejoin:miter;stroke-miterlimit:10;stroke-dasharray:none;stroke-opacity:1"
         d="m 981.211,2629.34 c 63.929,-18.26 -4.106,-37.26 -14.625,-57.15 -9.09,-17.21 29.406,-31.68 34.994,-48.19 6.71,-19.83 -34.064,-24.13 -80.689,-32.69 -33.672,-6.17 -53,-14.18 -66.766,-25.69 -18.742,-15.64 -35.223,-42.19 -107.66,-33.41 -34.957,4.24 -41.906,17.54 -72.672,23.31 -47.863,8.98 -98.852,-3.54 -137.273,-11.87 -86.696,-18.82 -253.352,-7.86 -266.825,29.93 -4.968,13.89 -17.437,22.65 -55.886,29.87 -44.297,8.31 -104.114,14.19 -85.602,34.09 12.481,13.42 64.344,23.07 50.879,38.6 -11.395,13.15 -64.598,22.1 -76.766,36.2 -11.445,13.28 14.836,22.23 43.422,30.9 60.883,18.48 132.992,30.09 202.735,44.52 45.746,9.46 95.015,19.46 147.761,24.55 90.008,8.7 146.223,-9.02 190.598,-31.42 28.949,-14.6 62.363,-30.08 115.199,-36.67 58.18,-7.26 129.074,-0.6 179.176,-14.88 z" /><path
         id="path22"
         style="fill:none;stroke:#dee2f4;stroke-width:10;stroke-linecap:butt;stroke-linejoin:miter;stroke-miterlimit:10;stroke-dasharray:none;stroke-opacity:1"
         d="m 4811.23,4116.83 c 63.94,-18.26 -4.11,-37.26 -14.63,-57.15 -9.09,-17.21 29.42,-31.68 35,-48.19 6.71,-19.83 -34.07,-24.13 -80.69,-32.69 -33.67,-6.18 -53,-14.18 -66.76,-25.68 -18.75,-15.65 -35.23,-42.2 -107.67,-33.42 -34.96,4.24 -41.9,17.53 -72.67,23.31 -47.86,8.98 -98.85,-3.53 -137.28,-11.87 -86.69,-18.82 -253.35,-7.85 -266.81,29.93 -4.97,13.9 -17.44,22.65 -55.89,29.87 -44.3,8.31 -104.11,14.19 -85.6,34.1 12.47,13.41 64.34,23.06 50.87,38.59 -11.4,13.15 -64.6,22.1 -76.76,36.2 -11.45,13.28 14.84,22.23 43.42,30.91 60.88,18.47 132.99,30.08 202.74,44.51 45.74,9.47 95.01,19.46 147.76,24.55 90,8.7 146.22,-9.02 190.6,-31.42 28.94,-14.6 62.36,-30.08 115.19,-36.67 58.18,-7.26 129.07,-0.6 179.18,-14.88 z" /><path
         id="path24"
         style="fill:none;stroke:#dee2f4;stroke-width:10;stroke-linecap:butt;stroke-linejoin:miter;stroke-miterlimit:10;stroke-dasharray:none;stroke-opacity:1"
         d="m 1557.23,4481.13 c -54.47,25.59 3.51,52.23 12.47,80.14 7.74,24.12 -25.06,44.41 -29.82,67.57 -5.72,27.8 29.03,33.84 68.75,45.84 28.69,8.66 45.16,19.88 56.88,36.02 15.97,21.94 30.02,59.18 91.74,46.86 29.79,-5.94 35.7,-24.59 61.92,-32.68 40.79,-12.6 84.22,4.94 116.96,16.64 73.87,26.38 215.87,11.01 227.35,-41.98 4.23,-19.48 14.86,-31.75 47.62,-41.88 37.74,-11.65 88.7,-19.9 72.93,-47.81 -10.63,-18.81 -54.82,-32.35 -43.35,-54.13 9.71,-18.43 55.05,-30.99 65.41,-50.76 9.75,-18.62 -12.64,-31.17 -36.99,-43.34 -51.88,-25.91 -113.32,-42.19 -172.74,-62.42 -38.99,-13.28 -80.96,-27.3 -125.91,-34.44 -76.69,-12.2 -124.59,12.66 -162.39,44.06 -24.67,20.48 -53.14,42.19 -98.16,51.43 -49.57,10.18 -109.97,0.84 -152.67,20.88 z" /><path
         id="path26"
         style="fill:#aeb6e2;fill-opacity:1;fill-rule:nonzero;stroke:none"
         d="m 2151.44,771.199 c 0,-36.988 -29.99,-66.969 -66.98,-66.969 h -3.02 c -36.99,0 -66.98,29.981 -66.98,66.969 v 904.761 c 0,36.98 29.99,66.96 66.98,66.96 h 3.02 c 36.99,0 66.98,-29.98 66.98,-66.96 V 771.199" /><path
         id="path28"
         style="fill:none;stroke:#aeb6e2;stroke-width:11.41419983;stroke-linecap:butt;stroke-linejoin:miter;stroke-miterlimit:10;stroke-dasharray:none;stroke-opacity:1"
         d="m 2279.82,683.672 c 0,-24.152 -19.58,-43.742 -43.73,-43.742 -24.14,0 -43.72,19.59 -43.72,43.742 0,24.148 19.58,43.719 43.72,43.719 24.15,0 43.73,-19.571 43.73,-43.719 z" /><path
         id="path30"
         style="fill:none;stroke:#aeb6e2;stroke-width:11.41419983;stroke-linecap:butt;stroke-linejoin:miter;stroke-miterlimit:10;stroke-dasharray:none;stroke-opacity:1"
         d="m 2125.26,683.672 c 0,-24.152 -19.58,-43.742 -43.73,-43.742 -24.14,0 -43.72,19.59 -43.72,43.742 0,24.148 19.58,43.719 43.72,43.719 24.15,0 43.73,-19.571 43.73,-43.719 z" /><path
         id="path32"
         style="fill:none;stroke:#aeb6e2;stroke-width:11.41419983;stroke-linecap:butt;stroke-linejoin:miter;stroke-miterlimit:10;stroke-dasharray:none;stroke-opacity:1"
         d="m 1970.7,683.672 c 0,-24.152 -19.58,-43.742 -43.73,-43.742 -24.14,0 -43.73,19.59 -43.73,43.742 0,24.148 19.59,43.719 43.73,43.719 24.15,0 43.73,-19.571 43.73,-43.719 z" /><path
         id="path34"
         style="fill:#939dd7;fill-opacity:1;fill-rule:nonzero;stroke:none"
         d="m 2254.16,755.602 c 0,-22.063 -17.88,-39.961 -39.95,-39.961 h -285.35 c -22.07,0 -39.95,17.898 -39.95,39.961 v 0 c 0,22.05 17.88,39.949 39.95,39.949 h 285.35 c 22.07,0 39.95,-17.899 39.95,-39.949 v 0" /><path
         id="path36"
         style="fill:#aeb6e2;fill-opacity:1;fill-rule:nonzero;stroke:none"
         d="m 2490.37,1748.63 c 0,-65.45 -55.53,-119.85 -124.05,-119.85 h -560.94 c -68.51,0 -124.05,54.4 -124.05,119.85 v 0 c 0,65.45 55.54,119.85 124.05,119.85 h 560.94 c 68.52,0 124.05,-54.4 124.05,-119.85 v 0" /><path
         id="path38"
         style="fill:none;stroke:#a3acde;stroke-width:11.41419983;stroke-linecap:round;stroke-linejoin:round;stroke-miterlimit:10;stroke-dasharray:34.2427, 34.2427;stroke-dashoffset:0;stroke-opacity:1"
         d="m 4418.95,2172.85 c -50.73,-38.59 -48.45,-119.18 -11.3,-183.35 63.87,-110.37 209.43,-209.28 46.91,-317.83 -49.09,-32.78 -125.6,-57.3 -183.27,-33.02 -47.36,19.97 -137.51,138.37 -50.01,164.55 83.43,24.97 123.86,-131.16 63.33,-174.39 -96.83,-69.17 -254.9,9.26 -361.07,0.64 -153.66,-12.45 -3.36,-161.46 9.89,-227.06 47.13,-233.29 -430.47,-109.43 -509.7,-24.04 -55.66,59.99 -97.28,189.33 -27.5,256.5 61.37,59.08 137.69,8.28 146.05,-68.27 18.41,-169.24 -205.56,-194.41 -319.82,-189.95" /><path
         id="path40"
         style="fill:#7985cb;fill-opacity:1;fill-rule:nonzero;stroke:none"
         d="m 4465.09,2227.41 136.41,114.75 -26.72,34.85 -97.46,-72.38 -12.23,-77.22" /><path
         id="path42"
         style="fill:#abb3e1;fill-opacity:1;fill-rule:nonzero;stroke:none"
         d="m 4518.91,2305.14 -76.82,45.79 c -2.36,1.4 -5.33,1.27 -7.57,-0.32 -2.23,-1.61 -3.3,-4.39 -2.69,-7.07 l 24.12,-111.12 c 0.56,-2.6 2.57,-4.64 5.17,-5.24 1.34,-0.32 2.72,-0.23 3.97,0.23 1.15,0.43 2.19,1.15 2.98,2.14 l 52.68,65.33 c 1.26,1.56 1.78,3.57 1.42,5.56 -0.36,1.97 -1.53,3.66 -3.26,4.7" /><path
         id="path44"
         style="fill:#dee2f4;fill-opacity:1;fill-rule:nonzero;stroke:none"
         d="m 4782.52,2501.54 c -1.71,2.18 -4.58,3.11 -7.24,2.38 L 4368,2392.63 c -2.71,-0.76 -4.64,-2.97 -5.01,-5.72 -0.37,-2.74 0.92,-5.45 3.31,-6.85 l 260.94,-155.57 c 1.61,-0.95 3.53,-1.22 5.34,-0.72 0.2,0.06 0.39,0.1 0.57,0.18 1.56,0.58 2.87,1.7 3.69,3.16 l 146.31,266.82 c 1.33,2.45 1.09,5.44 -0.63,7.61" /><path
         id="path46"
         style="fill:#abb3e1;fill-opacity:1;fill-rule:nonzero;stroke:none"
         d="m 4517,2290.21 260.11,207.06 -344.66,-156.66 z" /><path
         id="path48"
         style="fill:none;stroke:#a3acde;stroke-width:11.41419983;stroke-linecap:round;stroke-linejoin:round;stroke-miterlimit:10;stroke-dasharray:34.2427, 34.2427;stroke-dashoffset:0;stroke-opacity:1"
         d="m 3226.73,3326.05 c 48.4,-131.23 -82.16,-314.09 -241.95,-255.18 -67.68,24.96 -117.81,132.09 -32.6,175.53 90.48,46.11 170.79,-84.49 124.28,-158.14 -63.72,-100.89 -250.2,-43.99 -327.25,-132.39 -166.48,-191.01 40.92,-482.79 269.38,-339.29 38.34,24.09 90.4,105.8 71.33,151.2 -31.26,74.39 -140.67,18.63 -179.62,-20.15 -146.42,-145.81 89.57,-219.06 204.36,-214.76 145.2,5.42 315.06,-39.37 402.58,-163.5 152.46,-216.18 -184.23,-589.2 -328.91,-301.48 -26.02,51.75 -24.99,169.78 24.04,211.45 66.67,56.65 151.69,-29.01 111.26,-98.99 -42.05,-72.76 -201.92,-74.77 -270.43,-46.84 -84.37,34.37 -123.98,129.68 -147.28,212.03" /><path
         id="path50"
         style="fill:#b8bab9;fill-opacity:1;fill-rule:nonzero;stroke:none"
         d="m 3202.23,3360.91 -139.97,110.39 25.61,35.67 99.68,-69.28 14.68,-76.78" /><path
         id="path52"
         style="fill:#d3d5d2;fill-opacity:1;fill-rule:nonzero;stroke:none"
         d="m 3145.98,3436.9 75.34,48.18 c 2.31,1.48 5.29,1.44 7.57,-0.08 2.28,-1.54 3.42,-4.29 2.92,-6.98 l -20.62,-111.83 c -0.49,-2.61 -2.41,-4.71 -5,-5.39 -1.33,-0.38 -2.7,-0.31 -3.96,0.11 -1.18,0.38 -2.24,1.07 -3.05,2.04 l -54.73,63.64 c -1.31,1.51 -1.88,3.51 -1.58,5.5 0.29,1.98 1.4,3.72 3.11,4.81" /><path
         id="path54"
         style="fill:#ffffff;fill-opacity:1;fill-rule:nonzero;stroke:none"
         d="m 2876.31,3624.9 c 1.65,2.23 4.47,3.25 7.17,2.6 l 410.58,-98.41 c 2.73,-0.67 4.73,-2.82 5.19,-5.55 0.45,-2.73 -0.75,-5.48 -3.1,-6.96 l -255.92,-163.7 c -1.56,-1.01 -3.48,-1.34 -5.31,-0.9 -0.19,0.05 -0.39,0.09 -0.57,0.16 -1.58,0.54 -2.91,1.62 -3.78,3.05 l -154.65,262.09 c -1.41,2.4 -1.26,5.4 0.39,7.62" /><path
         id="path56"
         style="fill:#d3d5d2;fill-opacity:1;fill-rule:nonzero;stroke:none"
         d="m 3148.35,3422.04 -266.49,198.75 349.41,-145.72 z" /><path
         id="path58"
         style="fill:#f46b57;fill-opacity:1;fill-rule:nonzero;stroke:none"
         d="m 1927.99,688.469 c 57.64,-121.25 85.81,-112.399 101.59,-104.848 15.78,7.52 55.74,35.16 -9.2,142.668 -52.7,87.25 -90.79,113.82 -106.57,106.293 -15.78,-7.531 -14.8,-83.133 14.18,-144.113" /><path
         id="path60"
         style="fill:#f3a383;fill-opacity:1;fill-rule:nonzero;stroke:none"
         d="m 1937.92,708.641 c 29.08,-60.922 52.29,-73.68 68.07,-66.141 15.79,7.531 18.16,32.512 -10.94,93.422 -29.09,60.93 -65.46,104.187 -81.24,96.66 -15.78,-7.531 -5,-63.023 24.11,-123.941" /><path
         id="path62"
         style="fill:#1d264a;fill-opacity:1;fill-rule:nonzero;stroke:none"
         d="m 1736.26,1844.06 c 0,0 -109.37,-233.68 335.25,-165.79 0,0 432.14,-102.12 379.13,165.79 0,0 -335.04,211.23 -714.38,0" /><path
         id="path64"
         style="fill:#1d264a;fill-opacity:1;fill-rule:nonzero;stroke:none"
         d="m 1947.86,1917.06 c 0,0 265.92,15.34 24.88,-1113.912 L 1900,772.789 c 0,0 -284.08,1223.411 47.86,1144.271" /><path
         id="path66"
         style="fill:#f46b57;fill-opacity:1;fill-rule:nonzero;stroke:none"
         d="m 1849.8,702.031 c -100.24,-89.312 -122.75,-70.179 -134.36,-57.101 -11.61,13.07 -37.68,54.058 63.95,127.859 82.48,59.91 127.9,69.582 139.51,56.512 11.61,-13.09 -18.69,-82.36 -69.1,-127.27" /><path
         id="path68"
         style="fill:#f3a383;fill-opacity:1;fill-rule:nonzero;stroke:none"
         d="m 1848.5,724.48 c -50.48,-44.82 -76.83,-47.55 -88.43,-34.468 -11.61,13.07 -4.09,37 46.39,81.82 50.49,44.809 100.83,70.539 112.44,57.469 11.61,-13.09 -19.91,-60.012 -70.4,-104.821" /><path
         id="path70"
         style="fill:#273873;fill-opacity:1;fill-rule:nonzero;stroke:none"
         d="m 2300.63,1881.52 c 0,0 -227.9,110.78 -440.74,-1059.641 l 52.08,-44.09 c 0,0 728.23,1050.761 388.66,1103.731" /><path
         id="path72"
         style="fill:#f46b57;fill-opacity:1;fill-rule:nonzero;stroke:none"
         d="m 2094.61,3554.55 c 0,0 -342.67,71.72 -456.82,-1149.6 0,0 344.34,-127.21 456.58,-125.56 0,0 348.77,-35.69 513.64,45.66 0,0 -182.63,1209.91 -513.4,1229.5" /><path
         id="path74"
         style="fill:#f15d48;fill-opacity:1;fill-rule:nonzero;stroke:none"
         d="m 1706.28,2884.35 c 0,0 -308.18,-1392.54 382.23,-196.97 0,0 354.63,-443.68 519.5,-362.33 0,0 -89.89,547.88 -185.3,775.36 l -716.43,-216.06" /><path
         id="path76"
         style="fill:#fab95a;fill-opacity:1;fill-rule:nonzero;stroke:none"
         d="m 2361.57,2467.47 c 0,0 57.18,-158.5 99.19,-234.42 0,0 -69.63,-38.65 -115.28,-131.38 v -69.56 c 11.41,7.48 326.99,126.94 290.45,221.54 -140.49,363.67 -260.84,464.64 -402.52,488.74 -111.61,18.99 -194.16,19.92 -276.64,0 -99.78,-24.1 -218.43,-84.3 -370.42,-468.12 -30.39,-76.75 216.4,-213.38 244.64,-213.82 l 47.97,58.39 c 17.5,0.33 -135.79,109.22 -127.89,121.94 72.06,115.99 91.59,197.88 91.59,197.88 0,0 -29.78,-53.63 14.01,-226.22 25.56,-100.7 -66.93,-347.74 -66.93,-347.74 17.98,-0.49 628.05,-9.42 692.19,2.17 0,0 -139.06,209.04 -111.69,367.94 21.43,124.52 -8.67,232.66 -8.67,232.66" /><path
         id="path78"
         style="fill:#f3a383;fill-opacity:1;fill-rule:nonzero;stroke:none"
         d="m 2039.29,3044.15 -79.71,-304.51 c 0,0 123.08,-387.07 252.58,-1.38 l -82.66,305.89 h -90.21" /><path
         id="path80"
         style="fill:#f19876;fill-opacity:1;fill-rule:nonzero;stroke:none"
         d="m 2155.51,2950.2 -26.01,93.95 h -90.21 l -77.94,-299.07 c 77.59,46.85 158.98,130.65 194.16,205.12" /><path
         id="path82"
         style="fill:#f3a383;fill-opacity:1;fill-rule:nonzero;stroke:none"
         d="m 2288.4,3066.97 c 0,-107.16 -86.87,-194.04 -194.03,-194.04 v 0 c -107.17,0 -194.05,86.88 -194.05,194.04 v 205.46 c 0,107.16 86.88,194.04 194.05,194.04 v 0 c 107.16,0 194.03,-86.88 194.03,-194.04 v -205.46" /><path
         id="path84"
         style="fill:#f3a383;fill-opacity:1;fill-rule:nonzero;stroke:none"
         d="m 2349.94,3176.73 c 0,-39.83 -26.22,-72.13 -58.59,-72.13 -32.34,0 -58.57,32.3 -58.57,72.13 0,39.84 26.23,72.13 58.57,72.13 32.37,0 58.59,-32.29 58.59,-72.13" /><path
         id="path86"
         style="fill:#8f5440;fill-opacity:1;fill-rule:nonzero;stroke:none"
         d="m 2065.56,3006.24 c 0,0 62.21,-0.84 126.35,47.48 0,0 -5.36,-155.22 -126.35,-47.48" /><path
         id="path88"
         style="fill:#f3a383;fill-opacity:1;fill-rule:nonzero;stroke:none"
         d="m 1968.69,3176.73 c 0,-39.83 -26.22,-72.13 -58.59,-72.13 -32.34,0 -58.57,32.3 -58.57,72.13 0,39.84 26.23,72.13 58.57,72.13 32.37,0 58.59,-32.29 58.59,-72.13" /><path
         id="path90"
         style="fill:#f46b57;fill-opacity:1;fill-rule:nonzero;stroke:none"
         d="m 2203.58,3448.17 c 4.06,-31.97 -21.28,-84.73 -48.27,-116.86 -72.29,-86.05 -185.89,-82.45 -270.04,-82.45 7.07,87.48 -9.38,94.94 -6.12,106.49 29.49,104.5 130.91,172.99 243.74,143.8 47.11,-12.19 76.95,-21.61 80.69,-50.98" /><path
         id="path92"
         style="fill:#f46b57;fill-opacity:1;fill-rule:nonzero;stroke:none"
         d="m 2195.63,3448.17 c 0,0 37.14,-178.91 95.72,-225.18 0,0 100.1,145.54 -95.72,225.18" /><path
         id="path94"
         style="fill:none;stroke:#040606;stroke-width:22.82839966;stroke-linecap:round;stroke-linejoin:round;stroke-miterlimit:10;stroke-dasharray:none;stroke-opacity:1"
         d="m 1878.93,3214.51 c 0,0 36.99,278.83 209.58,291.41 0,0 187.2,12.57 227.65,-291.41" /><path
         id="path96"
         style="fill:#040606;fill-opacity:1;fill-rule:nonzero;stroke:none"
         d="m 1910.1,3181.03 c 0,-24.6 -11.95,-44.53 -26.71,-44.53 -14.75,0 -26.72,19.93 -26.72,44.53 0,24.59 11.97,44.53 26.72,44.53 14.76,0 26.71,-19.94 26.71,-44.53" /><path
         id="path98"
         style="fill:#040606;fill-opacity:1;fill-rule:nonzero;stroke:none"
         d="m 2342.87,3181.03 c 0,-24.6 -11.95,-44.53 -26.71,-44.53 -14.75,0 -26.72,19.93 -26.72,44.53 0,24.59 11.97,44.53 26.72,44.53 14.76,0 26.71,-19.94 26.71,-44.53" /><path
         id="path100"
         style="fill:#040606;fill-opacity:1;fill-rule:nonzero;stroke:none"
         d="m 2107.12,2935.84 c -16.24,-1.32 -30.04,5.5 -30.83,15.24 -0.79,9.74 11.73,18.71 27.95,20.03 16.24,1.33 30.05,-5.5 30.83,-15.24 0.8,-9.74 -11.72,-18.7 -27.95,-20.03" /><path
         id="path102"
         style="fill:none;stroke:#040606;stroke-width:11.41419983;stroke-linecap:round;stroke-linejoin:round;stroke-miterlimit:10;stroke-dasharray:none;stroke-opacity:1"
         d="m 1897.29,3143.04 c 0,0 60.7,-180.98 191.22,-189.56" /><path
         id="path104"
         style="fill:#040606;fill-opacity:1;fill-rule:nonzero;stroke:none"
         d="m 2026.38,3202.92 c 0,-6.4 -5.18,-11.59 -11.59,-11.59 -6.4,0 -11.59,5.19 -11.59,11.59 0,6.41 5.19,11.59 11.59,11.59 6.41,0 11.59,-5.18 11.59,-11.59" /><path
         id="path106"
         style="fill:#040606;fill-opacity:1;fill-rule:nonzero;stroke:none"
         d="m 2170.64,3202.92 c 0,-6.4 -5.19,-11.59 -11.59,-11.59 -6.39,0 -11.59,5.19 -11.59,11.59 0,6.41 5.2,11.59 11.59,11.59 6.4,0 11.59,-5.18 11.59,-11.59" /><path
         id="path108"
         style="fill:none;stroke:#8e5947;stroke-width:5.70710993;stroke-linecap:round;stroke-linejoin:round;stroke-miterlimit:10;stroke-dasharray:none;stroke-opacity:1"
         d="m 2089.56,3192.62 c 0,0 -4.43,-38.52 -24.98,-100.73 0,0 8.84,-9.82 41.1,-15.71" /><path
         id="path110"
         style="fill:none;stroke:#f46b57;stroke-width:11.41419983;stroke-linecap:round;stroke-linejoin:round;stroke-miterlimit:10;stroke-dasharray:none;stroke-opacity:1"
         d="m 2170.64,3248.86 32.94,-23.3" /><path
         id="path112"
         style="fill:none;stroke:#f46b57;stroke-width:11.41419983;stroke-linecap:round;stroke-linejoin:round;stroke-miterlimit:10;stroke-dasharray:none;stroke-opacity:1"
         d="m 2018.1,3248.86 -32.93,-23.3" /><path
         id="path114"
         style="fill:none;stroke:#f8a02e;stroke-width:11.41419983;stroke-linecap:round;stroke-linejoin:round;stroke-miterlimit:10;stroke-dasharray:none;stroke-opacity:1"
         d="m 1872.54,2513.63 c -27.93,-55.05 -63.63,-158.21 -15.87,-267.7" /><path
         id="path116"
         style="fill:none;stroke:#f8a02e;stroke-width:11.41419983;stroke-linecap:round;stroke-linejoin:round;stroke-miterlimit:10;stroke-dasharray:none;stroke-opacity:1"
         d="m 2338.17,2513.63 c 27.93,-55.05 63.63,-158.21 15.88,-267.7" /><path
         id="path118"
         style="fill:#fddc8b;fill-opacity:1;fill-rule:nonzero;stroke:none"
         d="m 1961.35,2749.21 c 0,0 -121.98,-330.46 123.78,-178.24 0,0 -82.91,18.85 -123.78,178.24" /><path
         id="path120"
         style="fill:#fddc8b;fill-opacity:1;fill-rule:nonzero;stroke:none"
         d="m 2212.77,2749.21 c 0,0 112.74,-334.99 -123.78,-178.24 0,0 82.92,18.85 123.78,178.24" /><path
         id="path122"
         style="fill:#13192f;fill-opacity:1;fill-rule:nonzero;stroke:none"
         d="m 1520.17,730.441 h -72.88 V 1864.9 h 72.88 V 730.441" /><path
         id="path124"
         style="fill:#13192f;fill-opacity:1;fill-rule:nonzero;stroke:none"
         d="M 2758.58,730.441 H 2685.7 V 1864.9 h 72.88 V 730.441" /><path
         id="path126"
         style="fill:#27304c;fill-opacity:1;fill-rule:nonzero;stroke:none"
         d="M 3222.46,1798.55 H 964.355 v 87.05 H 3222.46 v -87.05" /><path
         id="path128"
         style="fill:#27304c;fill-opacity:1;fill-rule:nonzero;stroke:none"
         d="m 1403.8,633.648 h -72.88 V 1817.76 h 72.88 V 633.648" /><path
         id="path130"
         style="fill:#27304c;fill-opacity:1;fill-rule:nonzero;stroke:none"
         d="m 2877.16,633.648 h -72.89 V 1817.76 h 72.89 V 633.648" /><path
         id="path132"
         style="fill:#f46b57;fill-opacity:1;fill-rule:nonzero;stroke:none"
         d="m 2780.95,3835.81 c 0,-110.02 -89.19,-199.22 -199.21,-199.22 -110.05,0 -199.24,89.2 -199.24,199.22 0,110.02 89.19,199.21 199.24,199.21 110.02,0 199.21,-89.19 199.21,-199.21" /><path
         id="path134"
         style="fill:#ffffff;fill-opacity:1;fill-rule:nonzero;stroke:none"
         d="m 2722.15,3751.96 c 0,-4.91 -6.86,-11.55 -11.58,-11.55 h -250.8 c -4.75,0 -11.57,6.64 -11.57,11.55 v 157.39 c 0,4.91 6.82,13.69 11.57,13.69 h 250.8 c 4.72,0 11.58,-8.78 11.58,-13.69 v -157.39" /><path
         id="path136"
         style="fill:#f46b57;fill-opacity:1;fill-rule:nonzero;stroke:none"
         d="m 2705.12,3774.09 -87.84,58.29 87.86,59.05 c 2.12,1.44 2.7,4.33 1.27,6.47 -1.45,2.14 -4.35,2.7 -6.48,1.26 l -114.17,-76.72 -22.02,14.6 c -0.01,0.02 -0.02,0.02 -0.04,0.03 l -93.59,62.11 c -2.12,1.42 -5.03,0.85 -6.47,-1.3 -1.41,-2.14 -0.83,-5.04 1.32,-6.46 l 87.82,-58.29 -87.86,-59.05 c -2.13,-1.43 -2.69,-4.33 -1.27,-6.47 0.91,-1.34 2.39,-2.06 3.88,-2.06 0.91,0 1.81,0.26 2.61,0.8 l 91.06,61.19 22,-14.6 c 0.78,-0.51 1.66,-0.78 2.57,-0.78 0.91,0 1.81,0.27 2.61,0.8 l 20.53,13.79 91.04,-60.42 c 0.79,-0.53 1.7,-0.78 2.58,-0.78 1.51,0 3,0.74 3.9,2.09 1.41,2.14 0.83,5.03 -1.31,6.45" /><path
         id="path138"
         style="fill:#fab95a;fill-opacity:1;fill-rule:nonzero;stroke:none"
         d="m 1619.18,3975.09 c 66.95,40.73 154.26,19.47 194.99,-47.47 40.75,-66.98 19.49,-154.29 -47.47,-195.03 -66.95,-40.73 -154.26,-19.47 -195.01,47.5 -40.73,66.95 -19.47,154.27 47.49,195" /><path
         id="path140"
         style="fill:#ffffff;fill-opacity:1;fill-rule:nonzero;stroke:none"
         d="m 1736.87,3933.52 c 0,0 -18.8,8.6 -28.29,5.04 -28.18,-10.52 -52.9,-55.84 -52.9,-55.84 -29.24,-50.33 -32.05,-80.62 -24.87,-97.09 4.74,-10.87 21.11,-19.22 22.41,-19.88 10.96,-5.58 24.44,-0.81 30.32,10.71 l 3.77,7.35 c 7.6,19.99 -2.18,30.15 -10.46,27.96 -13,-1.98 -12.71,28.18 -0.39,48.86 12.32,20.69 36.66,31.87 37.38,21.3 0.88,-12.83 23.45,-0.2 29.33,11.31 l 3.75,7.36 c 5.88,11.5 2.37,26.58 -8.59,32.17 -0.49,0.26 -1.46,0.75 -1.46,0.75" /><path
         id="path142"
         style="fill:#8e9090;fill-opacity:1;fill-rule:nonzero;stroke:none"
         d="m 1592.14,1879.89 h -376.67 v 11.42 h 376.67 v -11.42" /><path
         id="path144"
         style="fill:#b6b8b7;fill-opacity:1;fill-rule:nonzero;stroke:none"
         d="M 1614.97,1891.31 H 1238.3 v 22.83 h 376.67 v -22.83" /><path
         id="path146"
         style="fill:#ffffff;fill-opacity:1;fill-rule:nonzero;stroke:none"
         d="m 1580.72,1914.14 h -376.67 v 22.82 h 376.67 v -22.82" /><path
         id="path148"
         style="fill:#f46b57;fill-opacity:1;fill-rule:nonzero;stroke:none"
         d="m 1531.36,3084.04 c 0,-65.35 -118.33,-211.4 -118.33,-211.4 0,0 -118.32,146.05 -118.32,211.4 0,65.36 52.98,118.33 118.32,118.33 65.36,0 118.33,-52.97 118.33,-118.33" /><path
         id="path150"
         style="fill:#ffffff;fill-opacity:1;fill-rule:nonzero;stroke:none"
         d="m 1471.72,3089.7 c 0,-32.42 -26.28,-58.69 -58.69,-58.69 -32.41,0 -58.68,26.27 -58.68,58.69 0,32.41 26.27,58.68 58.68,58.68 32.41,0 58.69,-26.27 58.69,-58.68" /><path
         id="path152"
         style="fill:#4c63b8;fill-opacity:1;fill-rule:nonzero;stroke:none"
         d="m 1519,1938.4 h -194.04 v 251.11 H 1519 V 1938.4" /><path
         id="path154"
         style="fill:#4c63b8;fill-opacity:1;fill-rule:nonzero;stroke:none"
         d="m 1513.44,1934.84 c 0,-8.48 -41.53,-15.37 -92.75,-15.37 -51.21,0 -92.74,6.89 -92.74,15.37 0,8.51 41.53,15.38 92.74,15.38 51.22,0 92.75,-6.87 92.75,-15.38" /><path
         id="path156"
         style="fill:#4156af;fill-opacity:1;fill-rule:nonzero;stroke:none"
         d="m 1513.44,2192.45 c 0,-8.49 -41.53,-15.37 -92.75,-15.37 -51.21,0 -92.74,6.88 -92.74,15.37 0,8.51 41.53,15.39 92.74,15.39 51.22,0 92.75,-6.88 92.75,-15.39" /><path
         id="path158"
         style="fill:#13192f;fill-opacity:1;fill-rule:nonzero;stroke:none"
         d="m 1510.76,2185.33 49.91,107.33 c 4.62,9.92 0.22,21.73 -9.8,26.4 -10.06,4.67 -21.93,0.42 -26.55,-9.49 l -61.24,-130.8 c 7,0 40.04,4.16 47.68,6.56" /><path
         id="path160"
         style="fill:#f8a498;fill-opacity:1;fill-rule:nonzero;stroke:none"
         d="m 1552.53,2274.16 8.71,18.68 c -10.69,4.97 -21.38,9.95 -37.38,17.4 l -8.69,-18.69 c 15.99,-7.44 26.68,-12.43 37.36,-17.39" /><path
         id="path162"
         style="fill:#f46b57;fill-opacity:1;fill-rule:nonzero;stroke:none"
         d="m 1561.24,2292.84 -0.2,-0.36 c 4.64,9.92 -0.4,22.03 -10.31,26.66 -9.93,4.59 -22.42,0.65 -27.05,-9.29 l 0.18,0.39 c 16,-7.45 26.69,-12.43 37.38,-17.4" /><path
         id="path164"
         style="fill:#7985cb;fill-opacity:1;fill-rule:nonzero;stroke:none"
         d="m 565.336,3662.29 277.269,100 -21.492,69.34 -192.597,-56.52 -63.18,-112.82" /><path
         id="path166"
         style="fill:#abb3e1;fill-opacity:1;fill-rule:nonzero;stroke:none"
         d="m 693.309,3752.09 -92.993,115 c -2.851,3.53 -7.543,5.04 -11.918,3.82 -4.378,-1.21 -7.621,-4.91 -8.253,-9.42 l -26.114,-186.21 c -0.613,-4.35 1.336,-8.66 4.996,-11.1 1.907,-1.26 4.11,-1.89 6.309,-1.89 2.023,0 4.055,0.53 5.859,1.61 l 119.102,71.22 c 2.84,1.7 4.801,4.54 5.379,7.8 0.578,3.26 -0.281,6.6 -2.367,9.17" /><path
         id="path168"
         style="fill:#dee2f4;fill-opacity:1;fill-rule:nonzero;stroke:none"
         d="m 1214.66,3906.03 c -1.41,4.36 -5.3,7.44 -9.87,7.84 l -695.556,60.3 c -4.656,0.37 -8.918,-1.97 -11.058,-6.02 -2.156,-4.03 -1.684,-8.97 1.199,-12.53 L 815.25,3565.01 c 1.945,-2.4 4.789,-3.92 7.875,-4.19 0.336,-0.02 0.668,-0.04 1,-0.04 2.738,0 5.406,0.98 7.492,2.8 l 379.683,330.31 c 3.46,3 4.78,7.78 3.36,12.14" /><path
         id="path170"
         style="fill:#abb3e1;fill-opacity:1;fill-rule:nonzero;stroke:none"
         d="M 681.801,3730.03 1203.81,3902.5 579.457,3856.59 Z" /><path
         id="path172"
         style="fill:none;stroke:#a3acde;stroke-width:11.41419983;stroke-linecap:round;stroke-linejoin:round;stroke-miterlimit:10;stroke-dasharray:34.2427, 34.2427;stroke-dashoffset:0;stroke-opacity:1"
         d="M 509.297,3629.81 C 81.6836,3459.76 527.5,2721.79 858.402,2992.28 c 69.153,56.54 87.403,162.58 22.938,230.66 -74.305,78.48 -246.141,22.52 -244.363,-91.13 3.199,-204.97 574.293,-147.57 450.313,-362.31 -18.69,-32.36 -136.407,-120.65 -161.056,-40.71 -13.015,42.19 49.86,69.62 81.246,66.77 74.14,-6.79 123.2,-88.37 170.34,-137.57 102.5,-106.97 246.05,-213.42 403.07,-191.29 45.17,6.37 108.94,63.68 46.03,94.04 -41.51,20.05 -113.89,-30.69 -139.61,-59.94 -22.7,-25.83 -47.72,-67.35 -63.14,-111.06" /><path
         id="path174"
         style="fill:#fab95a;fill-opacity:1;fill-rule:nonzero;stroke:none"
         d="m 4447.73,3644.99 c -100.92,48.88 -222.35,6.68 -271.22,-94.23 -48.87,-100.92 -6.69,-222.34 94.23,-271.22 6,-2.9 12.08,-5.44 18.2,-7.7 l -7.17,-92.98 156.31,96.54 c 19.47,8.2 37.75,18.22 53.98,32.24 l 0.21,-0.97 h -0.04 c 20.22,22.83 37.33,40.4 49.72,66.01 48.87,100.91 6.69,223.44 -94.22,272.31" /><path
         id="path176"
         style="fill:#ffffff;fill-opacity:1;fill-rule:nonzero;stroke:none"
         d="m 4293.18,3459.47 c 0,-16.72 -13.55,-30.28 -30.27,-30.28 -16.72,0 -30.27,13.56 -30.27,30.28 0,16.72 13.55,30.28 30.27,30.28 16.72,0 30.27,-13.56 30.27,-30.28" /><path
         id="path178"
         style="fill:#ffffff;fill-opacity:1;fill-rule:nonzero;stroke:none"
         d="m 4395.91,3459.47 c 0,-16.72 -13.56,-30.28 -30.28,-30.28 -16.71,0 -30.27,13.56 -30.27,30.28 0,16.72 13.56,30.28 30.27,30.28 16.72,0 30.28,-13.56 30.28,-30.28" /><path
         id="path180"
         style="fill:#ffffff;fill-opacity:1;fill-rule:nonzero;stroke:none"
         d="m 4498.64,3459.47 c 0,-16.72 -13.55,-30.28 -30.27,-30.28 -16.72,0 -30.27,13.56 -30.27,30.28 0,16.72 13.55,30.28 30.27,30.28 16.72,0 30.27,-13.56 30.27,-30.28" /><path
         id="path182"
         style="fill:#273873;fill-opacity:1;fill-rule:nonzero;stroke:none"
         d="m 3564.43,3977.1 c 0,0 -83.24,-270.93 70.75,-438.21 l 264.06,17.85 c 0,0 104.02,85.14 71.27,367.65 l -177.66,112.79 -228.42,-60.08" /><path
         id="path184"
         style="fill:#f3a383;fill-opacity:1;fill-rule:nonzero;stroke:none"
         d="m 3555.38,829.789 -7.62,-91.32 c 0,0 72.97,-46.27 126.53,-33.36 l -14.27,133.039 -104.64,-8.359" /><path
         id="path186"
         style="fill:#13192f;fill-opacity:1;fill-rule:nonzero;stroke:none"
         d="m 3693.79,685.898 c 0,-45.527 -76.33,-37.628 -158.74,-40.878 -107.86,-4.29 -149.32,20.371 -149.32,45.519 0,14.52 6.61,23.082 41.33,31.43 25.41,6.113 70.92,11.301 122.63,39.59 47.9,26.203 3.53,-83.239 129.34,-25.957 15.75,7.16 14.76,-49.704 14.76,-49.704" /><path
         id="path188"
         style="fill:#f46b57;fill-opacity:1;fill-rule:nonzero;stroke:none"
         d="m 3453.97,2393.9 c 0,0 -35.07,-384.65 2.01,-878.99 l 93.57,-731.34 121.65,-22.011 c 0,0 22.61,193.781 22.61,673.181 0,343.06 169.92,714.6 124.1,1017.93 l -363.94,-58.77" /><path
         id="path190"
         style="fill:#f3a383;fill-opacity:1;fill-rule:nonzero;stroke:none"
         d="m 3994.61,829.789 7.63,-91.32 c 0,0 -72.98,-46.27 -126.54,-33.36 l 14.27,133.039 104.64,-8.359" /><path
         id="path192"
         style="fill:#13192f;fill-opacity:1;fill-rule:nonzero;stroke:none"
         d="m 3856.2,685.898 c 0,-45.527 76.33,-37.628 158.74,-40.878 107.86,-4.29 149.32,20.371 149.32,45.519 0,14.52 -6.61,23.082 -41.33,31.43 -25.4,6.113 -70.92,11.301 -122.63,39.59 -47.89,26.203 -3.53,-83.239 -129.34,-25.957 -15.76,7.16 -14.76,-49.704 -14.76,-49.704" /><path
         id="path194"
         style="fill:#f46b57;fill-opacity:1;fill-rule:nonzero;stroke:none"
         d="m 4096.03,2393.9 c 0,0 35.07,-384.65 -2.02,-878.99 L 4000.44,783.57 3878.8,761.559 c 0,0 -22.61,193.781 -22.61,673.181 0,343.06 -167.8,735.36 -121.98,1038.69 l 361.82,-79.53" /><path
         id="path196"
         style="fill:none;stroke:#ed4e38;stroke-width:11.41419983;stroke-linecap:butt;stroke-linejoin:miter;stroke-miterlimit:10;stroke-dasharray:none;stroke-opacity:1"
         d="m 3594.16,2223.53 c 0,0 16.87,-198.11 -130.09,-260.43" /><path
         id="path198"
         style="fill:none;stroke:#ed4e38;stroke-width:11.41419983;stroke-linecap:butt;stroke-linejoin:miter;stroke-miterlimit:10;stroke-dasharray:none;stroke-opacity:1"
         d="m 3955.47,2223.53 c 0,0 -16.87,-198.11 130.1,-260.43" /><path
         id="path200"
         style="fill:#4c63b8;fill-opacity:1;fill-rule:nonzero;stroke:none"
         d="m 4054.88,2965.47 c 0,0 14.94,-89.69 56.95,-165.62 0,0 145.1,67.8 173.46,165.62 -163,330.83 -243.72,346.36 -385.41,370.46 -111.6,18.98 -194.15,19.92 -276.64,0 -99.77,-24.1 -186.14,-20 -353.21,-370.46 14.27,-106.81 174.48,-149.22 174.48,-149.22 47.3,92.76 50.95,136.58 50.95,136.58 l -115.09,-803.49 c 17.98,-0.5 636.05,-170.53 822.89,15.9 l -148.38,800.23" /><path
         id="path202"
         style="fill:#f3a383;fill-opacity:1;fill-rule:nonzero;stroke:none"
         d="m 3705.76,3637.69 -79.71,-304.51 c 0,0 134.79,-201.53 252.58,-1.38 l -82.65,305.89 h -90.22" /><path
         id="path204"
         style="fill:#f19876;fill-opacity:1;fill-rule:nonzero;stroke:none"
         d="m 3821.99,3543.74 -26.01,93.95 h -90.22 l -77.94,-299.07 c 77.6,46.85 159,130.65 194.17,205.12" /><path
         id="path206"
         style="fill:#f3a383;fill-opacity:1;fill-rule:nonzero;stroke:none"
         d="m 3954.88,3660.51 c 0,-107.16 -86.87,-194.04 -194.04,-194.04 v 0 c -107.17,0 -194.04,86.88 -194.04,194.04 v 205.46 c 0,107.16 86.87,194.04 194.04,194.04 v 0 c 107.17,0 194.04,-86.88 194.04,-194.04 v -205.46" /><path
         id="path208"
         style="fill:#f3a383;fill-opacity:1;fill-rule:nonzero;stroke:none"
         d="m 4016.42,3770.27 c 0,-39.83 -26.22,-72.13 -58.6,-72.13 -32.33,0 -58.56,32.3 -58.56,72.13 0,39.84 26.23,72.13 58.56,72.13 32.38,0 58.6,-32.29 58.6,-72.13" /><path
         id="path210"
         style="fill:#ffffff;fill-opacity:1;fill-rule:nonzero;stroke:none"
         d="m 3732.04,3599.78 c 0,0 62.22,-0.84 126.35,47.47 0,0 -5.36,-155.21 -126.35,-47.47" /><path
         id="path212"
         style="fill:#f3a383;fill-opacity:1;fill-rule:nonzero;stroke:none"
         d="m 3635.18,3770.27 c 0,-39.83 -26.23,-72.13 -58.6,-72.13 -32.34,0 -58.58,32.3 -58.58,72.13 0,39.84 26.24,72.13 58.58,72.13 32.37,0 58.6,-32.29 58.6,-72.13" /><path
         id="path214"
         style="fill:#040606;fill-opacity:1;fill-rule:nonzero;stroke:none"
         d="m 3692.87,3796.46 c 0,-6.4 -5.19,-11.59 -11.59,-11.59 -6.41,0 -11.59,5.19 -11.59,11.59 0,6.41 5.18,11.59 11.59,11.59 6.4,0 11.59,-5.18 11.59,-11.59" /><path
         id="path216"
         style="fill:#040606;fill-opacity:1;fill-rule:nonzero;stroke:none"
         d="m 3837.13,3796.46 c 0,-6.4 -5.2,-11.59 -11.59,-11.59 -6.4,0 -11.59,5.19 -11.59,11.59 0,6.41 5.19,11.59 11.59,11.59 6.39,0 11.59,-5.18 11.59,-11.59" /><path
         id="path218"
         style="fill:none;stroke:#8e5947;stroke-width:5.70710993;stroke-linecap:round;stroke-linejoin:round;stroke-miterlimit:10;stroke-dasharray:none;stroke-opacity:1"
         d="m 3756.03,3786.16 c 0,0 -4.42,-38.52 -24.98,-100.73 0,0 8.84,-9.82 41.12,-15.71" /><path
         id="path220"
         style="fill:none;stroke:#273873;stroke-width:21.65369987;stroke-linecap:round;stroke-linejoin:round;stroke-miterlimit:10;stroke-dasharray:none;stroke-opacity:1"
         d="m 3837.13,3842.4 32.93,-23.3" /><path
         id="path222"
         style="fill:none;stroke:#273873;stroke-width:21.65369987;stroke-linecap:round;stroke-linejoin:round;stroke-miterlimit:10;stroke-dasharray:none;stroke-opacity:1"
         d="m 3684.57,3842.4 -32.92,-23.3" /><path
         id="path224"
         style="fill:#f3a383;fill-opacity:1;fill-rule:nonzero;stroke:none"
         d="m 3959.84,2607.94 c 0,0 -41.74,64.47 -119.6,100.91 0,0 -27.11,-7.2 33.69,-39.46 14.08,-7.48 -1.35,-47.55 43.36,-48.29 6.97,-0.11 34.66,-13.26 42.55,-13.16" /><path
         id="path226"
         style="fill:none;stroke:#3c53ad;stroke-width:11.41419983;stroke-linecap:round;stroke-linejoin:round;stroke-miterlimit:10;stroke-dasharray:none;stroke-opacity:1"
         d="m 3533.16,3136.5 c 0,0 -51.78,-281.92 -76.95,-457.68" /><path
         id="path228"
         style="fill:#f3a383;fill-opacity:1;fill-rule:nonzero;stroke:none"
         d="m 3387.97,3089.8 c 0,0 -114.14,-130.16 -194.04,-360.89 0,0 -48.29,-122.63 442.41,-178.24 l 4.65,44.04 c 0,0 -168.41,127.55 -248.32,165.28 l 59.99,101.53 -64.69,228.28" /><path
         id="path230"
         style="fill:#4c63b8;fill-opacity:1;fill-rule:nonzero;stroke:none"
         d="m 3270.03,2965.47 c 14.27,-106.81 174.48,-149.22 174.48,-149.22 19.17,37.6 31.1,67.03 38.59,88.88 25.17,143.32 55.47,281.5 87.15,418.31 -80.4,-21.59 -163.15,-70.44 -300.22,-357.97" /><path
         id="path232"
         style="fill:#fab95a;fill-opacity:1;fill-rule:nonzero;stroke:none"
         d="m 3495.35,2951.83 c 0.06,0.59 0.11,1 0.11,1 l -0.11,-1" /><path
         id="path234"
         style="fill:none;stroke:#3c53ad;stroke-width:11.41419983;stroke-linecap:round;stroke-linejoin:round;stroke-miterlimit:10;stroke-dasharray:none;stroke-opacity:1"
         d="m 4026.92,3136.5 c 0,0 51.79,-281.92 76.96,-457.68" /><path
         id="path236"
         style="fill:#f3a383;fill-opacity:1;fill-rule:nonzero;stroke:none"
         d="m 3594.16,2585.11 c 0,0 41.75,64.47 119.6,100.92 0,0 27.11,-7.21 -33.68,-39.47 -14.08,-7.48 1.36,-47.55 -43.37,-48.28 -6.96,-0.12 -34.66,-13.27 -42.55,-13.17" /><path
         id="path238"
         style="fill:#ffffff;fill-opacity:1;fill-rule:nonzero;stroke:none"
         d="m 3942.04,2447.09 c 1.87,-14.16 -7.18,-27.04 -20.19,-28.76 l -204.23,-26.74 c -13.01,-1.69 -25.09,8.42 -26.94,22.59 l -47.03,359.15 c -1.85,14.16 7.19,27.04 20.2,28.74 l 204.24,26.74 c 13.01,1.7 25.07,-8.39 26.92,-22.57 l 47.03,-359.15" /><path
         id="path240"
         style="fill:#686b6d;fill-opacity:1;fill-rule:nonzero;stroke:none"
         d="m 3875.65,2787.33 c 0,-6.91 -5.6,-12.51 -12.52,-12.51 -6.91,0 -12.51,5.6 -12.51,12.51 0,6.92 5.6,12.52 12.51,12.52 6.92,0 12.52,-5.6 12.52,-12.52" /><path
         id="path242"
         style="fill:#686b6d;fill-opacity:1;fill-rule:nonzero;stroke:none"
         d="m 3836.37,2788.59 c 0.32,-3.13 -1.95,-5.93 -5.09,-6.26 l -17.05,-1.74 c -3.13,-0.33 -5.93,1.95 -6.25,5.09 v 0 c -0.32,3.14 1.95,5.94 5.1,6.26 l 17.04,1.75 c 3.13,0.32 5.92,-1.96 6.25,-5.1 v 0" /><path
         id="path244"
         style="fill:#f3a383;fill-opacity:1;fill-rule:nonzero;stroke:none"
         d="m 4187.57,3089.8 c 0,0 114.14,-130.16 194.04,-360.89 0,0 61.23,-132.77 -444.08,-153.61 l -2.98,43.67 c 0,0 168.42,103.29 248.33,141.02 l -60,101.53 64.69,228.28" /><path
         id="path246"
         style="fill:#f3a383;fill-opacity:1;fill-rule:nonzero;stroke:none"
         d="m 3706.58,2570.89 c 0,-10.97 93.45,-10.01 93.47,-20.22 0.06,-22.07 -86.27,-5.68 -99.63,-15.23 -7.58,-5.42 64.15,-27.83 41.03,-32.44 -29.12,-5.79 -148.33,38.23 -147.29,82.11 0.6,25.1 133.04,64.68 156.57,56.29 26.93,-9.6 -73.74,-24.82 -64.25,-29.76 13.34,-6.97 103.87,4.42 106.81,-8.83 3.31,-15.02 -86.71,-14.42 -86.71,-31.92" /><path
         id="path248"
         style="fill:#f3a383;fill-opacity:1;fill-rule:nonzero;stroke:none"
         d="m 3847.43,2593.72 c 0,-10.97 -93.46,-10.01 -93.48,-20.22 -0.05,-22.07 86.27,-5.69 99.63,-15.23 7.58,-5.42 -64.15,-27.83 -41.03,-32.44 29.13,-5.79 148.33,38.23 147.29,82.11 -0.59,25.09 -114.14,73.64 -137.67,65.24 -26.94,-9.6 54.84,-33.77 45.36,-38.71 -13.35,-6.97 -103.88,4.43 -106.81,-8.83 -3.32,-15.02 86.71,-14.42 86.71,-31.92" /><path
         id="path250"
         style="fill:#4c63b8;fill-opacity:1;fill-rule:nonzero;stroke:none"
         d="m 4139.82,3208.81 c -42.28,-104.97 -61.76,-219.78 -61.44,-332.11 8.45,-24.6 19.4,-51.47 33.45,-76.85 0,0 145.1,67.8 173.46,165.62 -56.35,114.38 -102.86,190.96 -145.47,243.34" /><path
         id="path252"
         style="fill:#273873;fill-opacity:1;fill-rule:nonzero;stroke:none"
         d="m 3899.23,4009.04 c 0.52,1.36 -32.92,40.8 -34.88,42.89 -18.85,20.04 -39.34,40.26 -65.39,50.48 -60.37,23.7 -135.87,0.8 -181.47,-42.32 -25.95,-24.54 -48.67,-60.88 -56.69,-96.09 -8.19,-35.98 -12.19,-92.53 0.97,-127.79 11.06,-29.66 37.71,-30.34 64.58,-22.28 73.3,21.98 133.53,83.17 190.11,131.55 25.75,22.02 52.68,47.28 82.77,63.56" /><path
         id="path254"
         style="fill:#273873;fill-opacity:1;fill-rule:nonzero;stroke:none"
         d="m 3858.39,4017.21 c 0,0 162.13,32.29 96.49,-186.46 0,0 -37.98,12.79 -96.49,186.46" /><path
         id="path256"
         style="fill:#8e5947;fill-opacity:1;fill-rule:nonzero;stroke:none"
         d="m 3574.61,3767.7 c -7.56,10.86 -18.53,10.51 -22.2,10.04 1.62,2.96 6.47,7.35 11.07,9.8 2.56,1.38 3.97,5.9 3.14,10.11 -0.84,4.2 -3.58,6.52 -6.16,5.16 -4.34,-2.31 -18.5,-11 -18.4,-26.44 0.09,-14.32 11.99,-21.87 20.94,-26.3 0.48,-0.23 0.95,-0.34 1.41,-0.34 1.92,0 3.67,1.92 4.45,4.89 2.17,-3.8 3.29,-9.91 3.24,-17.11 -0.02,-4.43 2.16,-8.51 4.86,-8.51 0.01,0 0.02,0 0.05,0 2.69,0 4.86,3.96 4.89,8.37 0.07,12.77 -2.37,23.26 -7.29,30.33" /><path
         id="path258"
         style="fill:#8e5947;fill-opacity:1;fill-rule:nonzero;stroke:none"
         d="m 3960.26,3767.7 c 7.56,10.86 18.53,10.51 22.21,10.04 -1.63,2.96 -6.46,7.35 -11.07,9.8 -2.56,1.38 -3.98,5.9 -3.14,10.11 0.83,4.2 3.58,6.52 6.16,5.16 4.34,-2.31 18.49,-11 18.39,-26.44 -0.09,-14.32 -11.99,-21.87 -20.93,-26.3 -0.48,-0.23 -0.94,-0.34 -1.41,-0.34 -1.93,0 -3.67,1.92 -4.45,4.89 -2.17,-3.8 -3.3,-9.91 -3.25,-17.11 0.02,-4.43 -2.15,-8.51 -4.86,-8.51 -0.01,0 -0.02,0 -0.04,0 -2.68,0 -4.87,3.96 -4.89,8.37 -0.07,12.77 2.37,23.26 7.28,30.33" /><path
         id="path260"
         style="fill:#ffffff;fill-opacity:1;fill-rule:nonzero;stroke:none"
         d="m 2493.86,1895.19 c 0,-9.33 -11.86,-15.3 -22.18,-15.3 h -735.42 c -10.32,0 -18.56,5.97 -18.56,15.3 v 431.15 c 0,9.32 8.24,21.53 18.56,21.53 h 735.42 c 10.32,0 22.18,-12.21 22.18,-21.53 v -431.15" /><path
         id="path262"
         style="fill:#a6a9a7;fill-opacity:1;fill-rule:nonzero;stroke:none"
         d="m 2143.25,2092.39 c 0,-41.78 -33.88,-75.66 -75.67,-75.66 -41.78,0 -75.67,33.88 -75.67,75.66 0,41.79 33.89,75.68 75.67,75.68 41.79,0 75.67,-33.89 75.67,-75.68" /><path
         id="path264"
         style="fill:#c2c3c1;fill-opacity:1;fill-rule:nonzero;stroke:none"
         d="m 2190.04,2138.63 c 0,-26.78 -21.71,-48.48 -48.49,-48.48 -26.77,0 -48.48,21.7 -48.48,48.48 0,26.79 21.71,48.49 48.48,48.49 26.78,0 48.49,-21.7 48.49,-48.49" /><path
         id="path266"
         style="fill:#fddc8b;fill-opacity:1;fill-rule:nonzero;stroke:none"
         d="m 901.5,1414.7 c 10.527,-46.14 145.81,-146.66 164.33,-184.92 16.25,-33.56 -85.025,-5.92 -64.49,-31.42 55.1,-68.44 141.28,-245.551 204.15,-231.2 80.11,18.281 62.57,186.23 86.66,236.92 13.2,27.76 -88.09,-15.88 -82.52,19.91 3.9,24.97 116.72,127.69 116.53,155.38 -0.18,24.99 -2.1,50.86 -5.85,77.29 -2.39,16.94 -114.08,-23.25 -118.02,-5.97 -4.54,19.89 98.6,96.54 92.44,115.09 -10.38,31.3 -22.92,60.55 -37.12,87.28 -14.31,26.91 -98.27,-66.14 -115.47,-44.95 -29.08,35.86 21.5,170.21 -11.9,185.44 -29.71,13.56 -75.22,27.78 -104.65,21.06 -14.82,-3.38 18.55,-141.06 0.79,-156.42 -5.62,-4.87 -62.864,115.35 -68.267,110.04 -16.328,-16.07 -30.988,-33.29 -40.418,-46.51 -23.152,-32.47 98.555,-210.92 90.065,-260.81 -6.04,-35.51 -123.049,93.32 -120.569,52.51 1.95,-31.96 6.653,-65.11 14.309,-98.72" /><path
         id="path268"
         style="fill:none;stroke:#13192f;stroke-width:7.36764002;stroke-linecap:butt;stroke-linejoin:miter;stroke-miterlimit:10;stroke-dasharray:none;stroke-opacity:1"
         d="m 1069.56,1576.81 c 0,0 58.44,-536.05 184.66,-695.509" /><path
         id="path270"
         style="fill:#6accb8;fill-opacity:1;fill-rule:nonzero;stroke:none"
         d="m 1570.14,1246.72 c -11.8,-31.21 -121.18,-86.45 -138.27,-111.24 -14.97,-21.72 62.85,-13.82 45.38,-29.41 -46.91,-41.81 -126.25,-156.422 -171.86,-139.199 -58.12,21.938 -30.69,137.929 -44.31,176.269 -7.45,21.02 64.26,-21.16 63.18,4.62 -0.76,17.99 -76.03,102.96 -73.51,122.41 2.26,17.53 5.9,35.49 10.95,53.63 3.23,11.63 83.01,-29.31 87.43,-17.6 5.07,13.45 -65.21,79.01 -59.03,91.35 10.4,20.8 22.24,39.94 35.11,57.09 12.97,17.27 67.56,-57.63 82.19,-44.71 24.72,21.91 -1.47,122.03 24.72,128.94 23.28,6.14 58.4,10.96 79.76,2.9 10.75,-4.06 -25.88,-96.98 -13.97,-109.8 3.78,-4.06 56.71,73.89 60.26,69.54 10.8,-13.14 20.25,-26.91 26.14,-37.28 14.47,-25.43 -91.46,-136.95 -89.39,-172.97 1.45,-25.64 99.65,51.57 94.31,23.17 -4.19,-22.23 -10.51,-44.96 -19.09,-67.71" /><path
         id="path272"
         style="fill:none;stroke:#13192f;stroke-width:7.36764002;stroke-linecap:butt;stroke-linejoin:miter;stroke-miterlimit:10;stroke-dasharray:none;stroke-opacity:1"
         d="m 1458.79,1379.7 c 0,0 -89.39,-369.92 -197.05,-467.61" /><path
         id="path274"
         style="fill:#f46b57;fill-opacity:1;fill-rule:nonzero;stroke:none"
         d="m 1149.43,652.059 c 82.82,-0.528 164.55,-1.75 246.7,-0.727 40.97,42.148 67,104.887 67,175.027 0,58.602 -18.17,112.039 -48.03,152.621 -91.75,3.149 -183.88,7.59 -275.77,10.481 -34.71,-41.621 -56.21,-99.32 -56.21,-163.102 0,-69.738 25.73,-132.179 66.31,-174.3" /><path
         id="path276"
         style="fill:#d85947;fill-opacity:1;fill-rule:nonzero;stroke:none"
         d="m 1106.45,981.359 c 0,11.903 16.32,22.111 36.47,22.111 h 264.47 c 20.15,0 36.48,-10.208 36.48,-22.111 v 0 c 0,-11.89 -16.33,-22.097 -36.48,-22.097 h -264.47 c -20.15,0 -36.47,10.207 -36.47,22.097 v 0" /><path
         id="path278"
         style="fill:#d85947;fill-opacity:1;fill-rule:nonzero;stroke:none"
         d="m 1125.26,653.512 c 0,10.34 14.28,18.41 31.87,18.41 h 231.06 c 17.6,0 31.87,-8.07 31.87,-18.41 v 0 c 0,-10.352 -14.27,-18.43 -31.87,-18.43 h -231.06 c -17.59,0 -31.87,8.078 -31.87,18.43 v 0" /><path
         id="path280"
         style="fill:#4c63b8;fill-opacity:1;fill-rule:nonzero;stroke:none"
         d="m 2796.91,2258.34 c 5.07,-22.22 70.24,-70.63 79.16,-89.07 7.83,-16.16 -40.95,-2.85 -31.06,-15.14 26.53,-32.96 68.05,-118.27 98.34,-111.37 38.58,8.81 30.13,89.71 41.74,114.13 6.36,13.37 -42.43,-7.65 -39.76,9.59 1.89,12.04 56.23,61.51 56.13,74.85 -0.08,12.03 -1,24.5 -2.81,37.22 -1.15,8.17 -54.95,-11.2 -56.85,-2.87 -2.18,9.57 47.5,46.5 44.53,55.44 -5,15.07 -11.04,29.16 -17.88,42.04 -6.9,12.96 -47.34,-31.85 -55.62,-21.66 -14.01,17.29 10.35,82 -5.73,89.34 -14.32,6.52 -36.24,13.38 -50.41,10.14 -7.14,-1.62 8.93,-67.94 0.38,-75.35 -2.71,-2.34 -30.28,55.56 -32.89,53 -7.86,-7.73 -14.92,-16.02 -19.46,-22.4 -11.16,-15.63 47.47,-101.59 43.39,-125.62 -2.91,-17.1 -59.28,44.95 -58.09,25.29 0.94,-15.4 3.2,-31.37 6.89,-47.56" /><path
         id="path282"
         style="fill:none;stroke:#13192f;stroke-width:3.54893994;stroke-linecap:butt;stroke-linejoin:miter;stroke-miterlimit:10;stroke-dasharray:none;stroke-opacity:1"
         d="m 2877.86,2336.43 c 0,0 28.16,-258.21 88.96,-335.02" /><path
         id="path284"
         style="fill:#fddc8b;fill-opacity:1;fill-rule:nonzero;stroke:none"
         d="m 3118.99,2177.43 c -5.68,-15.04 -58.37,-41.64 -66.6,-53.58 -7.2,-10.47 30.28,-6.66 21.86,-14.16 -22.6,-20.15 -60.81,-75.35 -82.79,-67.06 -27.99,10.56 -14.78,66.44 -21.33,84.91 -3.6,10.13 30.94,-10.2 30.43,2.23 -0.37,8.66 -36.63,49.59 -35.41,58.95 1.09,8.45 2.84,17.1 5.27,25.84 1.55,5.61 39.98,-14.12 42.12,-8.48 2.44,6.48 -31.42,38.06 -28.44,44.01 5.01,10.02 10.71,19.24 16.91,27.49 6.25,8.33 32.54,-27.76 39.6,-21.53 11.9,10.55 -0.72,58.77 11.9,62.1 11.21,2.96 28.13,5.29 38.42,1.4 5.17,-1.95 -12.47,-46.72 -6.73,-52.88 1.82,-1.96 27.31,35.59 29.03,33.5 5.2,-6.34 9.75,-12.97 12.59,-17.96 6.97,-12.26 -44.05,-65.98 -43.07,-83.32 0.71,-12.36 48.01,24.83 45.44,11.16 -2.02,-10.71 -5.07,-21.66 -9.2,-32.62" /><path
         id="path286"
         style="fill:none;stroke:#13192f;stroke-width:3.54893994;stroke-linecap:butt;stroke-linejoin:miter;stroke-miterlimit:10;stroke-dasharray:none;stroke-opacity:1"
         d="m 3065.36,2241.48 c 0,0 -43.06,-178.19 -94.92,-225.24" /><path
         id="path288"
         style="fill:#f46b57;fill-opacity:1;fill-rule:nonzero;stroke:none"
         d="m 2916.34,1890.99 c 39.89,-0.26 79.27,-0.84 118.84,-0.36 19.73,20.31 32.27,50.53 32.27,84.31 0,28.23 -8.75,53.98 -23.14,73.53 -44.19,1.51 -88.57,3.65 -132.84,5.05 -16.71,-20.05 -27.08,-47.86 -27.08,-78.58 0,-33.58 12.41,-63.66 31.95,-83.95" /><path
         id="path290"
         style="fill:#d85947;fill-opacity:1;fill-rule:nonzero;stroke:none"
         d="m 2895.63,2049.61 c 0,5.73 7.87,10.64 17.57,10.64 h 127.4 c 9.7,0 17.57,-4.91 17.57,-10.64 v 0 c 0,-5.72 -7.87,-10.65 -17.57,-10.65 h -127.4 c -9.7,0 -17.57,4.93 -17.57,10.65 v 0" /><path
         id="path292"
         style="fill:#d85947;fill-opacity:1;fill-rule:nonzero;stroke:none"
         d="m 2904.7,1891.68 c 0,4.98 6.87,8.88 15.35,8.88 h 111.3 c 8.47,0 15.35,-3.9 15.35,-8.88 v 0 c 0,-4.98 -6.88,-8.87 -15.35,-8.87 h -111.3 c -8.48,0 -15.35,3.89 -15.35,8.87 v 0" /><path
         id="path294"
         style="fill:#101c23;fill-opacity:1;fill-rule:nonzero;stroke:none"
         d="m 2654,329.141 c -4.32,-4.422 -8.03,-9.321 -11.07,-14.52 l -4.65,2.399 c -0.68,2.968 -3.5,5.019 -6.59,4.671 -3.31,-0.39 -5.68,-3.402 -5.3,-6.711 0.39,-3.3 3.39,-5.66 6.7,-5.269 0.66,0.07 1.27,0.238 1.84,0.5 l 4.5,-2.34 c -2.51,-5.539 -4.32,-11.391 -5.38,-17.422 l 7.46,-1.328 c 2.3,13.07 8.51,25.078 17.92,34.738 l -5.43,5.282" /><path
         id="path296"
         style="fill:#101c23;fill-opacity:1;fill-rule:nonzero;stroke:none"
         d="m 2708.88,352.172 c -1.71,0 -3.41,-0.07 -5.09,-0.18 l -0.74,6.258 c 1.87,1.512 2.97,3.891 2.66,6.461 -0.46,3.91 -4.03,6.738 -7.95,6.281 -3.94,-0.461 -6.74,-4.043 -6.28,-7.961 0.3,-2.551 1.89,-4.609 4.04,-5.64 l 0.73,-6.25 c -7.14,-1.161 -14.02,-3.321 -20.59,-6.442 l 3.28,-6.859 c 9.33,4.48 19.4,6.742 29.94,6.742 4.97,0 9.93,-0.531 14.76,-1.57 l 1.6,7.398 c -5.35,1.16 -10.85,1.762 -16.36,1.762" /><path
         id="path298"
         style="fill:#101c23;fill-opacity:1;fill-rule:nonzero;stroke:none"
         d="m 2774.91,326.691 c 3.3,0.399 5.66,3.418 5.25,6.731 -0.4,3.308 -3.4,5.648 -6.72,5.238 -3.09,-0.379 -5.35,-3.031 -5.31,-6.07 l -4.16,-3.629 c -4.18,4.281 -8.88,8.109 -14.06,11.379 l -4.04,-6.399 c 11.34,-7.152 20.19,-17.281 25.62,-29.25 l 6.92,3.11 c -2.51,5.539 -5.69,10.73 -9.44,15.449 l 4.04,3.52 c 0.6,-0.129 1.25,-0.168 1.9,-0.079" /><path
         id="path300"
         style="fill:#101c23;fill-opacity:1;fill-rule:nonzero;stroke:none"
         d="m 2703.42,250.09 c -3.87,-0.238 -7.76,-0.348 -11.57,-0.348 -8.8,0 -17.35,0.59 -24.8,1.789 -3.9,0.61 -8.46,1.551 -12.69,2.918 10.46,-18.617 30.68,-31.25 53.87,-31.25 28.57,0 52.63,19.16 59.5,45.02 -6.81,-4.489 -15.04,-8.25 -24.58,-11.219 -11.79,-3.68 -25.54,-6.059 -39.73,-6.91" /><path
         id="path302"
         style="fill:#101c23;fill-opacity:1;fill-rule:nonzero;stroke:none"
         d="m 2734.67,280.941 c -7.5,0 -13.61,6.09 -13.61,13.59 0,7.5 6.11,13.61 13.61,13.61 7.5,0 13.59,-6.11 13.59,-13.61 0,-7.5 -6.09,-13.59 -13.59,-13.59 m -47.38,-9.082 c -10.2,0 -18.5,8.301 -18.5,18.481 0,10.219 8.3,18.519 18.5,18.519 10.19,0 18.49,-8.3 18.49,-18.519 0,-10.18 -8.3,-18.481 -18.49,-18.481 m 21.6,65.133 c -33.53,0 -60.79,-26.66 -60.79,-59.433 0,-4.25 0.45,-8.489 1.35,-12.61 6.74,-4.82 27.07,-8.898 53.48,-7.297 28.8,1.727 52.97,9.578 66.72,21.578 -0.05,1.942 -0.2,3.899 -0.45,5.809 -3.8,29.621 -29.74,51.953 -60.31,51.953" /><path
         id="path304"
         style="fill:#101c23;fill-opacity:1;fill-rule:nonzero;stroke:none"
         d="m 2868.93,318.32 c -2.96,1.16 -8.07,3.11 -13.84,2.379 -5.51,-0.679 -8.44,-3.398 -8.44,-10.058 v -8.672 h 22.3 v -17.168 h -22.3 V 230.25 h -19.31 v 54.551 h -13.39 v 17.168 h 13.39 v 8.902 c 0,16.801 8.95,27.809 25.68,27.809 6.43,0 11.57,-1.211 15.91,-3.059 V 318.32" /><path
         id="path306"
         style="fill:#101c23;fill-opacity:1;fill-rule:nonzero;stroke:none"
         d="m 2915.94,285.02 c -1.77,0.281 -3.57,0.46 -5.25,0.46 -8.96,0 -15.09,-5.492 -15.09,-16.128 V 230.25 h -19.34 v 71.719 h 18.73 v -7.84 c 4.51,6.742 11.41,9.781 20.21,9.781 4.15,0 8.47,-1.281 10.95,-3.371 l -10.21,-15.519" /><path
         id="path308"
         style="fill:#101c23;fill-opacity:1;fill-rule:nonzero;stroke:none"
         d="m 2941.48,272.891 h 31.75 c -1.78,9.179 -7.33,14.371 -15.62,14.371 -9.1,0 -14.43,-5.481 -16.13,-14.371 m 51.14,-6.661 c 0,-2.23 -0.15,-4.878 -0.37,-6.511 h -50.85 c 2.07,-10.367 9.33,-14.887 18.43,-14.887 6.21,0 12.95,2.52 18.13,6.898 l 11.33,-12.429 c -8.14,-7.481 -18.5,-10.891 -30.56,-10.891 -21.99,0 -37.25,14.961 -37.25,37.531 0,22.571 14.82,37.969 36.28,37.969 20.64,0 34.79,-15.34 34.86,-37.68" /><path
         id="path310"
         style="fill:#101c23;fill-opacity:1;fill-rule:nonzero;stroke:none"
         d="m 3018.01,272.891 h 31.76 c -1.79,9.179 -7.35,14.371 -15.63,14.371 -9.1,0 -14.42,-5.481 -16.13,-14.371 m 51.14,-6.661 c 0,-2.23 -0.15,-4.878 -0.37,-6.511 h -50.85 c 2.07,-10.367 9.34,-14.887 18.44,-14.887 6.21,0 12.96,2.52 18.12,6.898 l 11.33,-12.429 c -8.13,-7.481 -18.5,-10.891 -30.57,-10.891 -21.99,0 -37.23,14.961 -37.23,37.531 0,22.571 14.81,37.969 36.28,37.969 20.63,0 34.78,-15.34 34.85,-37.68" /><path
         id="path312"
         style="fill:#101c23;fill-opacity:1;fill-rule:nonzero;stroke:none"
         d="m 3095.84,266.148 c 0,-11.328 7.48,-19.757 18.44,-19.757 11.38,0 18.48,8.808 18.48,19.757 0,10.961 -7.1,19.774 -18.48,19.774 -10.96,0 -18.44,-8.442 -18.44,-19.774 m 56.78,0 c 0,-21.527 -14.95,-37.738 -34.73,-37.738 -9.62,0 -16.44,3.781 -21.08,9.309 v -37.078 h -19.25 v 101.328 h 18.88 v -7.918 c 4.65,5.847 11.54,9.851 21.37,9.851 19.86,0 34.81,-16.211 34.81,-37.754" /><path
         id="path314"
         style="fill:#101c23;fill-opacity:1;fill-rule:nonzero;stroke:none"
         d="m 3181.05,230.25 h -19.32 v 71.719 h 19.32 z m 2.6,95.199 c 0,-6.969 -5.41,-12.308 -12.37,-12.308 -6.96,0 -12.28,5.339 -12.28,12.308 0,6.942 5.32,12.43 12.28,12.43 6.96,0 12.37,-5.488 12.37,-12.43" /><path
         id="path316"
         style="fill:#101c23;fill-opacity:1;fill-rule:nonzero;stroke:none"
         d="m 3213.29,276.441 27.01,25.539 h 23.68 l -34.77,-33.75 35.01,-37.968 h -23.76 l -27.17,29.008 v -29.008 h -19.33 V 336.84 h 19.33 v -60.399" /><path
         id="path318"
         style="fill:#101c23;fill-opacity:1;fill-rule:nonzero;stroke:none"
         d="m 1897.09,250.102 v 32.078 c -3.95,6.14 -12.45,11.422 -21.24,11.422 -14.2,0 -22.7,-11.723 -22.7,-27.403 0,-15.66 8.5,-27.238 22.7,-27.238 8.79,0 17.29,4.988 21.24,11.141 m 0,-19.204 v 10.563 c -5.27,-7.18 -13.91,-12.32 -23.87,-12.32 -18.46,0 -31.5,14.058 -31.5,37.058 0,22.563 12.89,37.223 31.5,37.223 9.52,0 18.16,-4.703 23.87,-12.453 v 37.64 h 10.99 v -97.711 h -10.99" /><path
         id="path320"
         style="fill:#101c23;fill-opacity:1;fill-rule:nonzero;stroke:none"
         d="m 1957,294.34 c -15.09,0 -22.56,-12.75 -23.14,-23.59 h 46.43 c -0.15,10.539 -7.18,23.59 -23.29,23.59 m -34.72,-27.988 c 0,20.519 14.65,37.058 34.87,37.058 21.38,0 33.98,-16.699 33.98,-37.941 v -2.77 h -57.27 c 0.87,-13.328 10.25,-24.469 25.48,-24.469 8.06,0 16.26,3.231 21.83,8.93 l 5.27,-7.18 c -7.03,-7.031 -16.55,-10.839 -28.12,-10.839 -20.95,0 -36.04,15.089 -36.04,37.211" /><path
         id="path322"
         style="fill:#101c23;fill-opacity:1;fill-rule:nonzero;stroke:none"
         d="m 1999.04,240.27 5.71,7.91 c 4.69,-5.418 13.63,-10.098 23.29,-10.098 10.84,0 16.7,5.129 16.7,12.148 0,17.149 -43.8,6.602 -43.8,32.821 0,10.988 9.52,20.371 26.37,20.371 12.01,0 20.51,-4.551 26.22,-10.274 l -5.13,-7.609 c -4.24,5.121 -12.01,8.941 -21.09,8.941 -9.67,0 -15.67,-4.832 -15.67,-11.128 0,-15.532 43.79,-5.282 43.79,-32.821 0,-11.859 -9.52,-21.383 -27.83,-21.383 -11.57,0 -21.38,3.512 -28.56,11.122" /><path
         id="path324"
         style="fill:#101c23;fill-opacity:1;fill-rule:nonzero;stroke:none"
         d="m 2069.64,301.66 h 10.99 v -70.75 h -10.99 z m -1.9,17.43 c 0,4.09 3.37,7.461 7.32,7.461 4.1,0 7.47,-3.371 7.47,-7.461 0,-4.102 -3.37,-7.32 -7.47,-7.32 -3.95,0 -7.32,3.218 -7.32,7.32" /><path
         id="path326"
         style="fill:#101c23;fill-opacity:1;fill-rule:nonzero;stroke:none"
         d="m 2150.05,251.27 v 30.91 c -3.81,6.14 -12.3,11.41 -21.09,11.41 -14.21,0 -22.7,-11.281 -22.7,-26.949 0,-15.532 8.49,-26.942 22.7,-26.942 8.79,0 17.28,5.422 21.09,11.571 m -51.26,-38.54 5.57,8.219 c 5.85,-7.027 12.88,-9.668 22.99,-9.668 11.71,0 22.7,5.699 22.7,21.239 v 10.109 c -5.13,-7.18 -13.77,-12.598 -23.73,-12.598 -18.46,0 -31.49,13.77 -31.49,36.61 0,22.718 12.89,36.781 31.49,36.781 9.52,0 18.03,-4.703 23.73,-12.453 v 10.679 h 10.99 v -68.687 c 0,-23.449 -16.41,-30.762 -33.69,-30.762 -12.02,0 -20.22,2.34 -28.56,10.531" /><path
         id="path328"
         style="fill:#101c23;fill-opacity:1;fill-rule:nonzero;stroke:none"
         d="m 2227.1,230.898 v 46.301 c 0,12.442 -6.3,16.403 -15.82,16.403 -8.64,0 -16.85,-5.282 -20.94,-10.981 v -51.723 h -10.99 v 70.75 h 10.99 V 291.41 c 4.97,5.86 14.64,12.012 25.19,12.012 14.79,0 22.56,-7.473 22.56,-22.852 v -49.672 h -10.99" /><path
         id="path330"
         style="fill:#101c23;fill-opacity:1;fill-rule:nonzero;stroke:none"
         d="m 2287.01,294.34 c -15.1,0 -22.56,-12.75 -23.14,-23.59 h 46.43 c -0.15,10.539 -7.18,23.59 -23.29,23.59 m -34.72,-27.988 c 0,20.519 14.65,37.058 34.87,37.058 21.38,0 33.98,-16.699 33.98,-37.941 v -2.77 h -57.27 c 0.88,-13.328 10.25,-24.469 25.48,-24.469 8.06,0 16.26,3.231 21.83,8.93 l 5.27,-7.18 c -7.04,-7.031 -16.55,-10.839 -28.12,-10.839 -20.94,0 -36.04,15.089 -36.04,37.211" /><path
         id="path332"
         style="fill:#101c23;fill-opacity:1;fill-rule:nonzero;stroke:none"
         d="m 2386.47,250.102 v 32.078 c -3.96,6.14 -12.45,11.422 -21.24,11.422 -14.21,0 -22.71,-11.723 -22.71,-27.403 0,-15.66 8.5,-27.238 22.71,-27.238 8.79,0 17.28,4.988 21.24,11.141 m 0,-19.204 v 10.563 c -5.27,-7.18 -13.92,-12.32 -23.88,-12.32 -18.45,0 -31.49,14.058 -31.49,37.058 0,22.563 12.88,37.223 31.49,37.223 9.52,0 18.17,-4.703 23.88,-12.453 v 37.64 h 10.98 v -97.711 h -10.98" /><path
         id="path334"
         style="fill:#101c23;fill-opacity:1;fill-rule:nonzero;stroke:none"
         d="m 2481.97,238.961 c 14.36,0 22.85,11.57 22.85,27.25 0,15.668 -8.49,27.391 -22.85,27.391 -8.64,0 -17.29,-5.282 -21.09,-11.43 V 250.09 c 3.8,-6.149 12.45,-11.129 21.09,-11.129 m -32.08,-8.063 v 97.711 h 10.99 v -37.648 c 5.71,7.769 14.21,12.449 23.87,12.449 18.46,0 31.5,-14.648 31.5,-37.199 0,-23 -13.04,-37.07 -31.5,-37.07 -9.96,0 -18.6,5.129 -23.87,12.308 v -10.551 h -10.99" /><path
         id="path336"
         style="fill:#101c23;fill-opacity:1;fill-rule:nonzero;stroke:none"
         d="m 2528.25,213.18 c 1.61,-0.731 4.25,-1.168 6.01,-1.168 4.83,0 8.05,1.609 10.54,7.468 l 4.69,10.692 -29.59,71.488 h 11.88 l 23.57,-58.012 23.44,58.012 h 12 l -35.44,-85.109 c -4.25,-10.242 -11.42,-14.211 -20.8,-14.36 -2.34,0 -6.01,0.438 -8.06,1.039 l 1.76,9.95" /></g></g></svg>