<svg xmlns:dc="http://purl.org/dc/elements/1.1/" xmlns:cc="http://creativecommons.org/ns#" xmlns:rdf="http://www.w3.org/1999/02/22-rdf-syntax-ns#" xmlns:svg="http://www.w3.org/2000/svg" xmlns="http://www.w3.org/2000/svg" viewBox="0 0 666.66669 666.66669" height="666.66669" width="666.66669" xml:space="preserve" id="svg2" version="1.1"><metadata id="metadata8"><rdf:RDF><cc:Work rdf:about=""><dc:format>image/svg+xml</dc:format><dc:type rdf:resource="http://purl.org/dc/dcmitype/StillImage"/></cc:Work></rdf:RDF></metadata><defs id="defs6"/><g transform="matrix(1.3333333,0,0,-1.3333333,0,666.66667)" id="g10"><g transform="scale(0.1)" id="g12"><path id="path14" style="fill:transparent;fill-opacity:1;fill-rule:nonzero;stroke:none" d="M 5000,0 H 0 V 5000 H 5000 V 0"/><path id="path16" style="fill:#abdde7;fill-opacity:1;fill-rule:nonzero;stroke:none" d="m 2167.87,3418.96 c -156.27,566.89 -860.48,749.51 -1264.061,325.83 -5.797,-6.08 -11.582,-12.27 -17.368,-18.55 -578.589,-628.95 -305.257,-2178.87 902.239,-2571.71 1207.49,-392.831 2463.46,324.52 2534.02,965.79 70.55,641.27 -486.53,842.77 -1351.05,663.45 -488.44,-101.31 -706.5,282.28 -803.78,635.19"/><path id="path18" style="fill:#abdde7;fill-opacity:1;fill-rule:nonzero;stroke:none" d="m 3172.34,3321.99 c -161.55,-26.3 -206.32,-169.44 -81.59,-270.98 41.23,-33.56 100.12,-61.45 184,-75.36 319.55,-53.01 489.11,88.36 361.02,271.66 -79.05,113.14 -303.32,100.75 -463.43,74.68"/><path id="path20" style="fill:#abdde7;fill-opacity:1;fill-rule:nonzero;stroke:none" d="m 596.352,2176.55 c -100.434,129.25 -247.539,100.03 -276.965,-58.1 -9.731,-52.27 -6.02,-117.31 21.922,-197.62 106.441,-305.92 311.742,-387.1 411.351,-186.89 61.481,123.57 -56.765,314.53 -156.308,442.61"/><path id="path22" style="fill:#abdde7;fill-opacity:1;fill-rule:nonzero;stroke:none" d="m 4436.58,2045.79 c -14.88,-77.91 49.45,-133.09 122.35,-103.08 24.09,9.93 48.39,29.06 70.02,62.69 82.36,128.13 40.65,238.04 -74.04,226.76 -70.77,-6.96 -103.58,-109.16 -118.33,-186.37"/><path id="path24" style="fill:#abdde7;fill-opacity:1;fill-rule:nonzero;stroke:none" d="m 4028.15,2867.96 c 77.65,-16.2 133.92,47.18 105.15,120.58 -9.51,24.26 -28.23,48.89 -61.49,71.08 -126.7,84.53 -237.31,44.7 -227.98,-70.16 5.76,-70.89 107.37,-105.44 184.32,-121.5"/><path id="path26" style="fill:#abdde7;fill-opacity:1;fill-rule:nonzero;stroke:none" d="m 2140.89,3701.7 c 61.48,-50.12 140.61,-19.75 148.84,58.66 2.72,25.91 -2.56,56.39 -21.88,91.4 -73.58,133.36 -190.11,148.89 -234.69,42.63 -27.51,-65.59 46.81,-143.02 107.73,-192.69"/><path id="path28" style="fill:#373d9c;fill-opacity:1;fill-rule:nonzero;stroke:none" d="m 4629.09,1656.04 c 123.29,123.94 217.18,264 123.78,285.83 -93.49,21.87 -250.5,-222.22 -277.86,-444.39 l -27.38,-73.35 c 22.77,161.56 -32.59,358.35 -113.65,366.47 -80.53,8.05 -31.78,-119.6 32.18,-228.76 48.69,-83.11 61.53,-148.67 64.74,-182.54 l -129.33,-346.44 c 35.32,255.95 -52.38,566.48 -180.62,579.31 -127.8,12.78 -50.45,-189.77 51.05,-362.98 76.71,-130.9 97.35,-234.43 102.62,-288.53 l -25.78,-69.07 c 11.28,-6.36 22.59,-12.629 33.93,-18.852 l 153.86,412.162 c 29.68,22.16 74.75,48.94 138.92,70.65 119.86,40.54 240.33,105.03 174.21,151.72 -57.39,40.51 -192.28,-37.48 -285.2,-147.54 l 53.2,142.53 c 24,41.28 58.12,100.29 111.33,153.78"/><path id="path30" style="fill:#373d9c;fill-opacity:1;fill-rule:nonzero;stroke:none" d="m 742.719,3273.01 c 15.988,149.7 3.543,294.37 -70.957,258.69 -74.567,-35.72 -48.434,-284.28 52.957,-448.23 l 21.148,-64.02 c -71.801,120.77 -215.062,223.09 -273.863,184.85 -58.43,-38.01 43.117,-97.46 144.926,-136.29 77.496,-29.56 121.449,-66.67 141.871,-87.69 l 99.894,-302.37 c -114.246,190.93 -340.543,352.2 -433.582,291.68 -92.715,-60.3 68.418,-154.63 229.953,-216.24 122.075,-46.56 191.747,-104.97 224.446,-138.45 l 19.922,-60.29 c 10.996,1.81 21.976,3.69 32.949,5.64 l -118.852,359.72 c 7.989,30.89 23.824,73.17 55.215,122.34 58.633,91.83 104.774,200.08 35.203,195.79 -60.375,-3.72 -108.929,-128.81 -111.996,-252.82 l -41.098,124.41 c -6.148,40.66 -15.035,98.67 -8.136,163.28"/><path id="path32" style="fill:#3d89d1;fill-opacity:1;fill-rule:nonzero;stroke:none" d="m 3796.85,1244.31 c 1.56,-8.49 3.37,-17.74 5.49,-27.58 v -0.03 c 22.2,-103.21 76.7,-272.18 199.33,-305.399 0,0 -66.75,348.039 171.15,438.679 237.9,90.64 211.59,176.95 198,330.59 -13.6,153.63 -66.17,182.93 98.9,326.83 165.06,143.91 133.49,358.25 133.49,358.25 0,0 -156.21,-244.73 -323.06,-250.41 -166.86,-5.68 -196.08,-148.12 -188.97,-254.05 7.11,-105.92 -134.59,-117.9 -211.27,-179.33 -76.67,-61.45 -91.11,-384.09 -91.11,-384.09 0,0 2.11,-21.08 8.05,-53.46"/><path id="path34" style="fill:#385db4;fill-opacity:1;fill-rule:nonzero;stroke:none" d="m 3796.85,1244.31 c 1.56,-8.49 3.37,-17.74 5.49,-27.58 17.1,51.79 41.18,95.28 63.69,128.67 53.37,79.06 128.52,144.01 196.12,169.5 107.62,40.56 160.17,146.12 170.36,342.28 5.9,113.86 125.02,181.13 126.25,181.78 3.48,1.93 4.75,6.33 2.81,9.81 -1.93,3.5 -6.33,4.77 -9.8,2.84 -5.21,-2.87 -127.38,-71.71 -133.7,-193.67 -9.84,-189.64 -59.5,-291.28 -161.01,-329.54 -71.32,-26.88 -147.22,-92.27 -203.01,-174.91 -19.71,-29.21 -40.58,-65.99 -57.2,-109.18"/><path id="path36" style="fill:#385db4;fill-opacity:1;fill-rule:nonzero;stroke:none" d="m 1163.58,913.191 h 167.17 c -90.33,14.93 -314.28,111.079 -334.25,303.869 -25.293,244.19 -112.246,241.13 -258.762,266.67 -146.515,25.54 -186.879,-16.15 -279.906,173.42 -93.027,189.58 -300.586,213.47 -300.586,213.47 0,0 189.172,-206.41 152.969,-363.28 -36.207,-156.86 89.242,-219.51 189.695,-239.22 100.461,-19.71 76.379,-154.72 114.555,-241.43 17.422,-39.569 88.723,-80.588 161.109,-113.499 h 388.006"/><path id="path38" style="fill:#373d9c;fill-opacity:1;fill-rule:nonzero;stroke:none" d="m 801.484,1153.56 c 7.301,-73.12 49.352,-160.091 112.485,-232.619 2.219,-2.55 4.527,-5.14 6.886,-7.75 h 19.024 c -5.445,5.739 -10.602,11.391 -15.399,16.899 -60.394,69.379 -102.214,155.54 -109.152,224.86 -11.019,110.35 -96.301,185.57 -276.535,243.84 -104.613,33.81 -137.656,161.52 -137.957,162.83 -0.934,3.72 -4.719,6 -8.438,5.06 -3.746,-0.93 -6.027,-4.71 -5.093,-8.43 1.383,-5.55 35.136,-136.49 147.191,-172.72 174.238,-56.32 256.582,-127.86 266.988,-231.97"/><path id="path40" style="fill:#3d89d1;fill-opacity:1;fill-rule:nonzero;stroke:none" d="m 1253.74,1366.38 c -3.54,-11.86 -7.55,-24.78 -12.08,-38.5 l -0.01,-0.03 c -47.53,-143.84 -145.03,-386.1 -325.087,-414.659 0,0 142.507,495.859 -182.946,661.739 -325.449,165.89 -274.648,284.97 -231.629,502.04 43.012,217.07 122.508,250.78 -90.851,481.46 -213.36,230.67 -135.371,531.6 -135.371,531.6 0,0 185.234,-373.15 422.394,-406.9 237.153,-33.75 256.942,-241.45 230.516,-391.47 -26.43,-150.01 173.884,-188.88 273.824,-288.32 99.93,-99.43 70.94,-561.92 70.94,-561.92 0,0 -6.26,-29.76 -19.7,-75.04"/><path id="path42" style="fill:#385db4;fill-opacity:1;fill-rule:nonzero;stroke:none" d="m 1253.74,1366.38 c -3.54,-11.86 -7.55,-24.78 -12.08,-38.5 -16.45,76.51 -44.09,142.27 -71.09,193.35 -63.97,121 -161.2,225.21 -253.711,271.96 -147.293,74.4 -206.039,233.06 -190.414,514.48 9.086,163.34 -150.511,277.6 -152.16,278.72 -4.668,3.29 -5.805,9.76 -2.512,14.43 3.293,4.7 9.77,5.84 14.434,2.54 6.973,-4.89 170.672,-121.87 160.949,-296.84 -15.121,-272.04 40.102,-424.66 179.039,-494.86 97.615,-49.3 195.825,-154.25 262.715,-280.73 23.63,-44.7 47.76,-100.37 64.83,-164.55"/><path id="path44" style="fill:#2f335d;fill-opacity:1;fill-rule:nonzero;stroke:none" d="m 1382.83,1029.79 c 0.55,-37.688 1.23,-76.919 2.05,-116.599 h 363.6 c 0.69,43.43 1.23,85.059 1.62,124.099 1.1,105.83 1.22,192.93 1.14,247.07 -0.04,38.39 -0.2,60.16 -0.2,60.16 l -370.77,3.94 c 0,0 0,-32.03 0.29,-84.43 0.24,-58.22 0.89,-141.59 2.27,-234.24"/><path id="path46" style="fill:#1c1a2c;fill-opacity:1;fill-rule:nonzero;stroke:none" d="m 1380.56,1264.03 c 0.24,-58.22 0.89,-141.59 2.27,-234.24 114.22,-8.72 239.43,-8.79 367.27,7.5 1.1,105.83 1.22,192.93 1.14,247.07 l -370.68,-20.33"/><path id="path48" style="fill:#2f335d;fill-opacity:1;fill-rule:nonzero;stroke:none" d="m 924.605,1113.4 c 0.411,-59.26 1.114,-127.162 2.286,-200.209 h 363.629 c 0.9,42.778 1.62,85.028 2.21,125.399 1.26,86.65 1.9,164.66 2.23,220.75 0.28,55.18 0.28,89.12 0.28,89.12 l -370.924,-3.94 c 0,0 -0.285,-39.32 -0.199,-105.5 0,-35 0.16,-77.45 0.488,-125.62"/><path id="path50" style="fill:#1c1a2c;fill-opacity:1;fill-rule:nonzero;stroke:none" d="m 924.117,1239.02 c 0,-35 0.16,-77.45 0.488,-125.62 73.833,-21.77 206.025,-55.63 368.125,-74.81 1.26,86.65 1.9,164.66 2.23,220.75 l -370.843,-20.32"/><path id="path52" style="fill:#2f335d;fill-opacity:1;fill-rule:nonzero;stroke:none" d="m 1533.66,3299.19 c 0,0 58.43,56.27 58.23,111.85 -0.2,55.57 -37.97,39.15 -58.23,90.93 -20.27,51.78 -80.5,83.36 -113.53,77.04 -33.04,-6.31 -102.77,122.51 -197.36,99.77 -94.59,-22.73 -86.35,-143.98 -127.1,-161.66 -40.74,-17.68 -29.38,-89.67 -7.9,-106.08 21.47,-16.43 30.55,-82.41 42.64,-80.92 12.08,1.49 403.25,-30.93 403.25,-30.93"/><path id="path54" style="fill:#f25349;fill-opacity:1;fill-rule:nonzero;stroke:none" d="m 1140.41,3300.52 c 0,0 -36.73,48.98 -64.05,8.48 -27.31,-40.5 11.31,-160.12 78.18,-130.92 l -14.13,122.44"/><path id="path56" style="fill:#e43342;fill-opacity:1;fill-rule:nonzero;stroke:none" d="m 1139.94,3215.04 c -2.47,0 -4.74,1.63 -5.44,4.13 -10.36,36.93 -48.63,51.9 -49.01,52.05 -2.91,1.11 -4.38,4.38 -3.27,7.29 1.1,2.91 4.36,4.38 7.27,3.28 1.79,-0.67 43.96,-17.04 55.9,-59.57 0.84,-3 -0.92,-6.12 -3.92,-6.97 -0.51,-0.14 -1.03,-0.21 -1.53,-0.21"/><path id="path58" style="fill:#e43342;fill-opacity:1;fill-rule:nonzero;stroke:none" d="m 1101.32,3233.65 c -1.05,0 -2.11,0.29 -3.06,0.9 -2.62,1.69 -3.38,5.19 -1.69,7.81 0.29,0.43 7.05,10.76 21.21,17.1 2.84,1.28 6.19,0 7.47,-2.85 1.27,-2.85 0,-6.19 -2.85,-7.47 -10.95,-4.9 -16.28,-12.83 -16.33,-12.9 -1.07,-1.68 -2.9,-2.59 -4.75,-2.59"/><path id="path60" style="fill:#f25349;fill-opacity:1;fill-rule:nonzero;stroke:none" d="m 1518.99,3300.52 c 0,0 36.73,48.98 64.05,8.48 27.31,-40.5 -11.31,-160.12 -78.18,-130.92 l 14.13,122.44"/><path id="path62" style="fill:#e43342;fill-opacity:1;fill-rule:nonzero;stroke:none" d="m 1519.46,3215.04 c 2.47,0 4.74,1.63 5.44,4.13 10.36,36.93 48.63,51.9 49.01,52.05 2.91,1.11 4.38,4.38 3.27,7.29 -1.1,2.91 -4.36,4.38 -7.27,3.28 -1.79,-0.67 -43.96,-17.04 -55.9,-59.57 -0.84,-3 0.92,-6.12 3.92,-6.97 0.51,-0.14 1.03,-0.21 1.53,-0.21"/><path id="path64" style="fill:#e43342;fill-opacity:1;fill-rule:nonzero;stroke:none" d="m 1558.08,3233.65 c 1.05,0 2.11,0.29 3.06,0.9 2.62,1.69 3.38,5.19 1.69,7.81 -0.29,0.43 -7.05,10.76 -21.21,17.1 -2.84,1.28 -6.2,0 -7.47,-2.85 -1.27,-2.85 0,-6.19 2.85,-7.47 10.95,-4.9 16.28,-12.83 16.33,-12.9 1.07,-1.68 2.9,-2.59 4.75,-2.59"/><path id="path66" style="fill:#f6876f;fill-opacity:1;fill-rule:nonzero;stroke:none" d="m 1420.13,3076.61 v -118.96 c 0,0 -35.48,-60.58 -83.46,-64.71 -47.93,-4.18 -90.52,52.16 -90.52,52.16 v 123.15 l 173.98,8.36"/><path id="path68" style="fill:#f25349;fill-opacity:1;fill-rule:nonzero;stroke:none" d="m 1420.13,3076.61 v -52.78 c -32.2,-35.73 -89.37,-44.65 -173.98,-32.16 v 76.58 l 173.98,8.36"/><path id="path70" style="fill:#f6876f;fill-opacity:1;fill-rule:nonzero;stroke:none" d="m 1545.55,3382.13 c -2.21,-46.23 -6.61,-104.04 -15.43,-150.27 -2.2,-11.53 -4.69,-22.38 -7.46,-32.1 -25.04,-87.66 -87.66,-237.99 -262.96,-175.37 -77.43,27.64 -113.32,113.88 -129.31,201.59 -10.85,59.57 -12.49,119.76 -11.7,162.76 0.85,43.92 24.81,84.04 63.02,105.68 103.48,58.67 212.66,36.8 284.55,9.16 49.9,-19.16 81.83,-68.16 79.29,-121.45"/><path id="path72" style="fill:#2f335d;fill-opacity:1;fill-rule:nonzero;stroke:none" d="m 1326.06,3161.58 c 117.46,20.16 96.47,-48.61 95.71,-51.07 v -0.04 c -0.04,-0.04 -0.04,-0.04 -0.04,-0.04 -7.95,-7.58 -16.06,-13.95 -24.13,-18.3 -45.51,-24.59 -50.43,-20.88 -68.39,-21.67 -18.26,-0.88 -43.46,4.54 -69.03,18.83 -7.96,4.47 -19.86,13.11 -32.89,25.01 0,0 -18.46,63.08 98.77,47.28 z M 1130.41,3226 c 0,0 17.01,-101.36 33.07,-138.3 16.1,-36.95 59.99,-43.91 76.48,-75.14 23.5,-44.52 59.34,-79.8 118.29,-58.3 49.05,17.89 46.83,42.97 74.31,62.37 47.07,33.24 70.41,69.82 72.31,100.13 1.89,30.31 25.27,115.11 25.27,115.11 l -25.27,1.78 c 0,0 -14.4,-29.82 -35.58,-62.67 -21.26,46.68 -123.67,12.73 -123.67,12.73 l -19.56,-6.33 -20.08,6.33 c 0,0 -103.62,32.51 -124.09,-16.44 -12.53,19.17 -22.73,40.73 -27.35,63.57 l -24.13,-4.84"/><path id="path74" style="fill:#2f335d;fill-opacity:1;fill-rule:nonzero;stroke:none" d="m 1255.46,3285 c 0,-12.71 -6.54,-23 -14.61,-23 -8.08,0 -14.62,10.29 -14.62,23 0,12.7 6.54,22.99 14.62,22.99 8.07,0 14.61,-10.29 14.61,-22.99"/><path id="path76" style="fill:#2f335d;fill-opacity:1;fill-rule:nonzero;stroke:none" d="m 1429.25,3285 c 0,-12.71 -6.54,-23 -14.62,-23 -8.07,0 -14.62,10.29 -14.62,23 0,12.7 6.55,22.99 14.62,22.99 8.08,0 14.62,-10.29 14.62,-22.99"/><path id="path78" style="fill:#2f335d;fill-opacity:1;fill-rule:nonzero;stroke:none" d="m 1472.17,3360.71 c 0,0 -60.4,23.87 -106.91,3.78 l 4.65,-25.86 c 0,0 68.26,5.77 102.66,-8.17 3.07,9.96 3.53,20.02 -0.4,30.25"/><path id="path80" style="fill:#2f335d;fill-opacity:1;fill-rule:nonzero;stroke:none" d="m 1184.96,3360.6 c 0,0 60.85,24.04 107.71,3.8 l -4.69,-26.06 c 0,0 -68.77,5.82 -103.42,-8.22 -3.1,10.03 -3.55,20.17 0.4,30.48"/><path id="path82" style="fill:#f25349;fill-opacity:1;fill-rule:nonzero;stroke:none" d="m 1331.67,3188.63 c 9.53,0 18.98,3.71 20.45,4.31 2.88,1.18 4.27,4.48 3.09,7.37 -1.17,2.89 -4.48,4.27 -7.36,3.09 -5.11,-2.06 -17.36,-5.31 -22.67,-2.14 -1.02,0.62 -2.43,1.84 -2.78,5.27 -2.04,19.73 3.36,85.88 3.42,86.55 0.25,3.11 -2.06,5.84 -5.17,6.09 -3.13,0.27 -5.84,-2.06 -6.1,-5.17 -0.22,-2.75 -5.54,-67.87 -3.39,-88.64 0.81,-7.82 4.91,-11.82 8.22,-13.8 3.61,-2.16 7.96,-2.93 12.29,-2.93"/><path id="path84" style="fill:#ffffff;fill-opacity:1;fill-rule:nonzero;stroke:none" d="m 1259.61,3150.27 c 4.3,-21.58 18.55,-61.3 66.6,-61.3 48.16,0 61.66,36.29 66.3,61.3 h -132.9"/><path id="path86" style="fill:#2f335d;fill-opacity:1;fill-rule:nonzero;stroke:none" d="m 1545.55,3382.13 c -2.21,-46.23 -6.61,-104.04 -15.43,-150.27 l -25.26,1.79 c 0,0 6.12,39.03 8.94,64.46 2.83,25.43 7.63,72.97 -14.07,78.9 -21.65,5.88 -8.94,60.11 -39.07,83.62 -30.12,23.56 -97.03,44.31 -141.45,16.95 -44.42,-27.29 -94.95,-12.2 -115.41,-16.95 -20.51,-4.69 -48.32,-32.95 -40.8,-59.34 7.57,-26.33 -15.03,-42.39 -20.51,-69.68 -5.49,-27.3 12.03,-100.77 12.03,-100.77 l -24.13,-4.86 c -10.85,59.57 -12.49,119.76 -11.7,162.76 0.85,43.92 24.81,84.04 63.02,105.68 103.48,58.67 212.66,36.8 284.55,9.16 49.9,-19.16 81.83,-68.16 79.29,-121.45"/><path id="path88" style="fill:#385db4;fill-opacity:1;fill-rule:nonzero;stroke:none" d="m 1827.87,1165.76 c -114.35,-28.95 -228.7,-47.68 -343.12,-56.31 -5.19,-0.37 -10.34,-0.75 -15.53,-1.1 -15.73,-1.06 -31.46,-1.94 -47.18,-2.63 -77.83,-3.35 -155.69,-2.04 -233.54,3.97 -15.7,1.2 -31.38,2.59 -47.08,4.21 -5.02,0.47 -10.03,1 -15.07,1.58 -92.96,10.09 -185.881,26.86 -278.909,50.28 -0.933,85.7 0.125,356.61 5.391,650.41 0.606,35.31 1.289,70.95 2.07,106.64 8.243,387.21 24.145,780.26 52.75,819.63 27.422,37.68 110.068,85.57 189.078,128.77 4.72,2.57 9.43,5.14 14.11,7.69 17.77,9.64 35.14,19 51.47,27.87 35.01,19.06 65.2,35.99 83.86,49.07 v -10.76 c 0,0 42.54,-56.31 90.48,-52.15 43.7,3.76 76.97,54.24 82.62,63.29 20.61,-14.52 57.64,-34.53 100.56,-57.21 11.95,-6.33 24.3,-12.81 36.9,-19.48 4.64,-2.45 9.3,-4.92 13.99,-7.42 87.38,-46.34 181.59,-98.59 209.87,-137.43 2.12,-2.87 4.13,-7.69 6.05,-14.29 16.73,-56.66 27.11,-244.69 33.44,-472.37 0.03,-0.81 0.05,-1.64 0.08,-2.47 0.27,-9.2 0.5,-18.48 0.73,-27.81 0.05,-1.21 0.08,-2.44 0.1,-3.68 2.07,-79.86 3.63,-163.94 4.84,-248.43 0.1,-6.7 0.22,-13.4 0.3,-20.11 0.03,-3.38 0.08,-6.7 0.1,-10.08 0.28,-16.64 0.45,-33.27 0.61,-49.83 0.17,-12.22 0.32,-24.42 0.43,-36.65 3.15,-305.37 1.86,-593.42 0.6,-683.2"/><path id="path90" style="fill:#3948a5;fill-opacity:1;fill-rule:nonzero;stroke:none" d="m 1820.89,2217.74 c -27.52,44.95 -57.06,90.81 -84.89,131.39 -0.07,0.11 -0.15,0.21 -0.2,0.3 -11.69,17.04 -23.06,33.13 -33.87,47.82 -0.18,0.28 -0.36,0.52 -0.56,0.76 -3.38,4.61 -6.73,9.09 -10,13.45 -0.53,0.76 -0.94,1.54 -1.19,2.37 l -0.02,0.03 c -0.88,2.95 0.1,6.22 2.69,8.19 3.36,2.54 8.12,1.89 10.64,-1.46 33.42,-44.28 76.17,-107.95 116.59,-172.57 0.03,-0.81 0.05,-1.64 0.08,-2.47 0.27,-9.2 0.5,-18.48 0.73,-27.81"/><path id="path92" style="fill:#385db4;fill-opacity:1;fill-rule:nonzero;stroke:none" d="m 1781.76,2740.93 c 0,0 172.45,-315.95 277.57,-476.07 0,0 59.78,54.93 137.53,128.39 84.3,79.66 199.59,212.79 199.59,212.79 l 63.8,-75.66 c 0,0 -259.04,-466.15 -375.23,-524.74 -116.19,-58.58 -330.29,356.08 -330.29,356.08 l 27.03,379.21"/><path id="path94" style="fill:#3948a5;fill-opacity:1;fill-rule:nonzero;stroke:none" d="m 1051.6,1495.73 c -0.1,0 -0.19,0 -0.28,0 -4.31,0.16 -7.67,3.77 -7.52,8.08 9.05,255.15 -123.265,337.81 -124.597,338.61 -3.683,2.23 -4.887,7.01 -2.676,10.7 2.207,3.69 6.985,4.9 10.68,2.7 1.469,-0.88 36.445,-22.13 70.32,-76.57 30.923,-49.7 66.753,-137.93 61.853,-276 -0.14,-4.21 -3.6,-7.52 -7.78,-7.52"/><path id="path96" style="fill:#3948a5;fill-opacity:1;fill-rule:nonzero;stroke:none" d="m 1616.04,1736.11 c -4.04,0 -7.46,3.1 -7.77,7.19 -4.19,53.73 13.51,92.92 35.91,142.54 6.56,14.52 13.33,29.52 20.27,46.36 43.49,105.47 21.64,226.06 21.41,227.26 -0.79,4.24 2,8.31 6.23,9.1 4.24,0.81 8.31,-1.99 9.11,-6.23 0.95,-5.1 22.91,-126.37 -22.32,-236.08 -7.04,-17.07 -13.87,-32.2 -20.48,-46.83 -22.33,-49.44 -38.46,-85.16 -34.58,-134.91 0.34,-4.3 -2.88,-8.05 -7.17,-8.38 -0.21,-0.02 -0.41,-0.02 -0.61,-0.02"/><path id="path98" style="fill:#ffffff;fill-opacity:1;fill-rule:nonzero;stroke:none" d="m 1162.3,2906.78 c 3.34,-25.12 8.23,-57.71 13.57,-94.73 1.63,-10.99 3.26,-22.39 4.93,-34.1 5.42,-38.23 11.02,-79.83 15.8,-121.89 1.29,-11.29 2.5,-22.62 3.63,-33.91 4.21,-41.64 7.39,-83.01 8.53,-121.48 0.38,-11.63 0.53,-22.99 0.45,-34.02 -0.07,-29.36 -1.7,-56.34 -5.26,-79.41 -2.28,-14.59 -4.29,-28.84 -6.06,-42.79 -1.48,-11.55 -2.81,-22.92 -3.98,-34.09 -4.55,-43.39 -6.83,-83.78 -7.46,-121.85 -0.2,-11.57 -0.23,-22.89 -0.12,-33.99 0.34,-43.23 2.8,-83.51 6.37,-121.85 1.05,-11.49 2.23,-22.78 3.44,-33.92 4.66,-41.9 10.34,-81.8 15.69,-121.24 1.55,-11.3 3.07,-22.55 4.55,-33.8 2.31,-18.04 4.5,-36.07 6.4,-54.22 2.01,-19.25 3.29,-41.76 3.9,-66.73 0.3,-10.9 0.45,-22.31 0.49,-34.1 0.15,-37.31 -0.79,-78.65 -2.54,-121.88 -0.45,-11.3 -0.94,-22.74 -1.51,-34.3 -1.93,-40.16 -4.47,-81.45 -7.31,-122.23 -0.83,-11.48 -1.67,-22.89 -2.54,-34.24 -3.15,-42.45 -6.63,-83.78 -10.15,-122.24 -1.07,-11.67 -2.13,-23.08 -3.19,-34.14 -4.06,-42.33 -8,-79.94 -11.44,-109.95 77.86,-5.99 155.72,-7.32 233.55,-3.95 1.82,31.95 6.78,83.48 11.67,144.13 0.91,11.11 1.78,22.55 2.65,34.22 2.92,38.58 5.57,79.8 7.31,121.4 0.5,11.4 0.91,22.85 1.22,34.26 1.17,41.52 1.21,82.78 -0.57,121.46 -0.53,11.75 -1.21,23.23 -2.12,34.41 -0.91,11.44 -2.01,22.58 -3.34,33.35 -3.75,30.38 -5.19,59.56 -5,88.42 0.04,11.45 0.34,22.82 0.87,34.22 1.78,39.55 6.1,79.19 11.1,121.28 1.33,11.18 2.73,22.55 4.14,34.14 4.5,37.43 9.2,77.15 12.92,120.61 0.98,11.14 1.85,22.54 2.69,34.21 2.57,37.28 4.31,77.33 4.58,120.98 0.07,11.25 0.04,22.74 -0.12,34.47 -0.41,37.79 -2,78.21 -5.07,121.75 -0.27,3.86 -0.53,7.77 -0.83,11.7 -0.58,7.62 -1.06,15.31 -1.41,23.01 -2.01,39.71 -1.48,80.55 0.76,121.28 0.61,11.44 1.36,22.89 2.24,34.33 3.14,40.77 7.73,81.16 13.03,119.88 1.55,11.52 3.18,22.92 4.85,34.14 6.37,42.44 13.23,82.37 19.52,118.06 2.08,11.75 4.09,23.04 5.98,33.8 4.28,24.1 7.99,45.58 10.72,63.77 -42.93,22.69 -79.95,42.7 -100.56,57.21 -5.64,-9.06 -38.91,-59.53 -82.63,-63.28 -47.93,-4.16 -90.48,52.14 -90.48,52.14 v 10.76 c -18.65,-13.07 -48.85,-30.01 -83.86,-49.06"/><path id="path100" style="fill:#dcd9d7;fill-opacity:1;fill-rule:nonzero;stroke:none" d="m 1175.87,2812.05 c 1.63,-10.99 3.26,-22.39 4.93,-34.1 43,-0.98 93.51,5.46 154.36,19.52 65.17,15 122.65,12.38 167.97,3.97 2.08,11.75 4.09,23.04 5.98,33.8 -49.11,9.06 -111.05,11.67 -181.61,-4.59 -60.05,-13.82 -110.06,-20.19 -151.63,-18.6"/><path id="path102" style="fill:#dcd9d7;fill-opacity:1;fill-rule:nonzero;stroke:none" d="m 1196.6,2656.06 c 1.29,-11.29 2.5,-22.62 3.63,-33.91 38.61,1.02 83.02,7.46 134.93,19.48 53.92,12.42 102.64,12.73 143.6,7.61 1.55,11.52 3.18,22.92 4.85,34.14 -44.41,5.49 -97.26,5.04 -156.11,-8.53 -50.39,-11.63 -93.74,-17.99 -130.9,-18.79"/><path id="path104" style="fill:#dcd9d7;fill-opacity:1;fill-rule:nonzero;stroke:none" d="m 1208.76,2500.67 c 0.38,-11.63 0.53,-22.99 0.45,-34.02 36.49,1.71 78.02,8.07 125.95,19.13 47.36,10.92 90.7,12.47 128.33,9.25 0.61,11.44 1.36,22.89 2.24,34.33 -40.47,3.33 -87.11,1.44 -138.23,-10.35 -44.97,-10.38 -84.34,-16.55 -118.74,-18.34"/><path id="path106" style="fill:#dcd9d7;fill-opacity:1;fill-rule:nonzero;stroke:none" d="m 1193.91,2310.36 c 40.08,0.45 86.46,6.96 141.25,19.58 47.97,11.07 91.84,12.51 129.81,9.1 -0.27,3.86 -0.53,7.77 -0.83,11.7 -0.58,7.62 -1.06,15.31 -1.41,23.01 -39.78,2.99 -85.36,0.94 -135.23,-10.58 -49.82,-11.51 -92.71,-17.81 -129.61,-18.72 -1.48,-11.55 -2.81,-22.92 -3.98,-34.09"/><path id="path108" style="fill:#dcd9d7;fill-opacity:1;fill-rule:nonzero;stroke:none" d="m 1186.33,2154.52 c 41.79,-0.34 90.55,6.13 148.83,19.58 50.28,11.6 95.93,12.7 135,8.72 0.07,11.25 0.04,22.74 -0.12,34.47 -41.45,3.83 -89.57,2.24 -142.54,-9.96 -55.05,-12.69 -101.66,-19.09 -141.05,-18.82 -0.2,-11.57 -0.23,-22.89 -0.12,-33.99"/><path id="path110" style="fill:#dcd9d7;fill-opacity:1;fill-rule:nonzero;stroke:none" d="m 1192.7,2032.67 c 1.05,-11.49 2.23,-22.78 3.44,-33.92 39.56,0.64 85.25,7.13 139.02,19.51 47.17,10.88 90.33,12.55 127.73,9.37 0.98,11.14 1.85,22.54 2.69,34.21 -40.47,3.34 -87.04,1.44 -138.08,-10.35 -52.13,-12.01 -96.76,-18.41 -134.8,-18.82"/><path id="path112" style="fill:#dcd9d7;fill-opacity:1;fill-rule:nonzero;stroke:none" d="m 1211.83,1877.51 c 1.55,-11.3 3.07,-22.55 4.55,-33.8 34.74,2.16 73.92,8.37 118.78,18.71 40.16,9.29 77.41,11.83 110.67,10.46 1.33,11.18 2.73,22.55 4.14,34.14 -36.68,1.67 -77.87,-1.06 -122.47,-11.37 -43.68,-10.03 -82.03,-16.18 -115.67,-18.14"/><path id="path114" style="fill:#dcd9d7;fill-opacity:1;fill-rule:nonzero;stroke:none" d="m 1226.68,1722.76 c 0.3,-10.9 0.45,-22.31 0.49,-34.1 32.02,2.7 67.75,8.64 107.99,17.96 35.43,8.16 68.58,11.1 98.7,10.76 0.04,11.45 0.34,22.82 0.87,34.22 -32.7,0.34 -68.69,-2.88 -107.23,-11.79 -37.35,-8.6 -70.85,-14.31 -100.82,-17.05"/><path id="path116" style="fill:#dcd9d7;fill-opacity:1;fill-rule:nonzero;stroke:none" d="m 1223.12,1532.48 c 33.04,2.54 70.06,8.64 112.04,18.3 39.52,9.1 76.23,11.71 109.16,10.42 -0.53,11.75 -1.21,23.23 -2.12,34.41 -34.67,0.98 -73.21,-2.05 -114.7,-11.6 -38.23,-8.82 -72.36,-14.63 -102.87,-17.23 -0.45,-11.3 -0.94,-22.74 -1.51,-34.3"/><path id="path118" style="fill:#dcd9d7;fill-opacity:1;fill-rule:nonzero;stroke:none" d="m 1213.27,1376.01 c 35.5,2 75.7,8.29 121.89,18.93 39.29,9.06 75.78,11.71 108.51,10.54 0.5,11.4 0.91,22.85 1.22,34.26 -35.35,1.21 -74.8,-1.75 -117.39,-11.57 -41.94,-9.69 -78.99,-15.72 -111.69,-17.92 -0.83,-11.48 -1.67,-22.89 -2.54,-34.24"/><path id="path120" style="fill:#dcd9d7;fill-opacity:1;fill-rule:nonzero;stroke:none" d="m 1199.93,1219.63 c 38.69,0.99 83.17,7.47 135.23,19.48 35.35,8.15 68.46,11.13 98.55,10.75 0.91,11.11 1.78,22.55 2.65,34.22 -33.15,0.49 -69.68,-2.69 -108.86,-11.75 -47.47,-10.94 -88.7,-17.19 -124.38,-18.56 -1.07,-11.67 -2.13,-23.08 -3.19,-34.14"/><path id="path122" style="fill:#3948a5;fill-opacity:1;fill-rule:nonzero;stroke:none" d="m 1469.21,1108.35 c 5.19,0.34 10.35,0.72 15.54,1.1 30.68,180.42 12.99,445.28 6.4,526.44 -6.82,84.27 6.29,192.63 35.95,297.21 23.04,81.23 8.91,269.58 -2.42,420.9 -3.18,42.47 -6.21,82.6 -7.99,115.57 -5.8,106.54 32.77,303.72 54.03,402.53 -4.7,2.5 -9.36,4.97 -13.98,7.43 -21.3,-97.83 -61.27,-299.48 -55.21,-410.8 1.82,-33.11 4.85,-73.31 8.04,-115.86 11.25,-150.16 25.26,-336.99 2.99,-415.61 -30.16,-106.28 -43.46,-216.58 -36.49,-302.58 6.56,-81.28 24.36,-347.8 -6.86,-526.33"/><path id="path124" style="fill:#3948a5;fill-opacity:1;fill-rule:nonzero;stroke:none" d="m 1154.84,1842.5 c 18.04,-110.95 12.35,-183.01 5.76,-266.41 -2.12,-26.97 -4.32,-54.82 -5.87,-85.58 -4.81,-96.55 -21.15,-290.96 -28.38,-375.04 5.04,-0.57 10.04,-1.1 15.08,-1.59 7.24,84.08 23.6,278.98 28.46,375.87 1.51,30.53 3.71,58.31 5.83,85.13 6.63,84.39 12.39,157.28 -5.95,270.04 -3.9,24.21 -8.07,48.76 -12.2,73.2 -20.42,120.91 -41.56,245.94 -31.56,305.84 2.42,14.63 5.53,31.23 8.86,48.81 13.57,72.29 30.51,162.24 25.16,240.3 -5.3,77.36 -37.01,286.86 -49.18,365.82 -4.69,-2.54 -9.39,-5.12 -14.13,-7.69 12.69,-82.57 43.04,-284.02 48.2,-359.16 5.19,-76.12 -11.52,-165.05 -24.93,-236.46 -3.34,-17.66 -6.48,-34.33 -8.95,-49.12 -10.38,-62.4 10,-183.07 31.6,-310.87 4.13,-24.41 8.26,-48.92 12.2,-73.09"/><path id="path126" style="fill:#f6876f;fill-opacity:1;fill-rule:nonzero;stroke:none" d="m 856.598,2613.77 c 0,0 -154.368,-514.79 -192.598,-698.25 -38.23,-183.46 -41.187,-564.85 -41.187,-564.85 0,0 -67.485,-140.09 -69.083,-202.44 -1.703,-66.46 33.196,-119.34 29.215,-162.839 -3.984,-43.5 48.969,-19.879 34.012,68.209 -14.961,88.11 27.481,167.89 45.797,165.34 18.32,-2.56 -15.156,-96.2 1.109,-129.94 16.258,-33.74 37.313,31.81 58.25,71.59 21.735,41.28 20.465,131.39 10.571,195.71 -9.891,64.32 106.707,454.99 107.265,568.19 l 147.641,498.9 c 0,0 -48.777,208.26 -130.992,190.38"/><path id="path128" style="fill:#385db4;fill-opacity:1;fill-rule:nonzero;stroke:none" d="m 1006.5,2435.92 c -5.23,-33.08 -23.527,-89.88 -47.168,-161.33 v -0.04 c -2.008,-6.02 -4.059,-12.17 -6.102,-18.42 -0.117,-0.26 -0.226,-0.56 -0.3,-0.87 -5.914,-17.77 -12.09,-36.36 -18.457,-55.62 -0.035,-0.11 -0.075,-0.23 -0.114,-0.34 -26.179,-79.5 -55.164,-170.42 -79.492,-263.86 -8.375,-31.98 -16.176,-64.3 -23.109,-96.5 -8.867,-41.12 -16.367,-82.11 -21.863,-122.24 -19.743,-144.54 -57.477,-327.63 -57.477,-327.63 -55.359,-22.73 -141.898,7.28 -141.898,7.28 0,0 -2.235,263.67 10.117,366.12 15.265,126.67 34.707,216.85 58.801,320.36 66.308,284.89 183.007,563.64 215.027,637.57 2.539,5.91 4.543,10.49 5.945,13.67 h 27.551 c 54.219,-34.44 92.669,-209.03 78.539,-298.15"/><path id="path130" style="fill:#3d89d1;fill-opacity:1;fill-rule:nonzero;stroke:none" d="m 606.02,1449.14 4.339,-60.67 c 0,0 82.286,-26.74 143.961,-7.9 l 16.309,54.11 c -59.391,-3.15 -114.258,-1.68 -164.609,14.46"/><path id="path132" style="fill:#3948a5;fill-opacity:1;fill-rule:nonzero;stroke:none" d="m 959.332,2274.59 v -0.04 c 0,-0.87 -0.152,-1.74 -0.453,-2.62 -1.859,-5.11 -3.758,-10.38 -5.649,-15.8 -0.117,-0.26 -0.226,-0.56 -0.3,-0.87 -6.067,-17.19 -12.242,-35.91 -18.457,-55.62 -0.035,-0.11 -0.075,-0.23 -0.114,-0.34 -32.242,-102.45 -65.019,-231.35 -80.097,-313.68 0.152,16.55 0.343,33.19 0.605,49.82 -8.375,-31.98 -16.176,-64.3 -23.109,-96.5 3.105,30.19 11.742,75.43 23.523,126.69 23.801,103.74 60.324,232.23 89.348,311.5 1.441,3.93 5.797,5.95 9.734,4.51 3.075,-1.14 4.969,-3.98 4.969,-7.05"/><path id="path134" style="fill:#2f335d;fill-opacity:1;fill-rule:nonzero;stroke:none" d="m 3720.71,913.191 h 364.65 c -1.2,25.297 -2.4,49.539 -3.57,72.43 -6.36,124.869 -11.76,209.889 -11.76,209.889 l -296.55,-13.18 -24.58,-1.11 -43.63,-1.95 c 0,0 4.21,-76.03 10.76,-187.399 1.45,-24.633 3.02,-51.019 4.68,-78.68"/><path id="path136" style="fill:#1c1a2c;fill-opacity:1;fill-rule:nonzero;stroke:none" d="m 3748.9,1181.22 -43.63,-1.95 c 0,0 4.21,-76.03 10.76,-187.399 113.94,-9.5 238.33,-13.359 365.76,-6.25 -6.36,124.869 -11.76,209.889 -11.76,209.889 l -296.55,-13.18 -24.58,-1.11"/><path id="path138" style="fill:#1c1a2c;fill-opacity:1;fill-rule:nonzero;stroke:none" d="m 3788.59,913.191 c -6.66,115.579 -12.13,214.309 -15.12,269.129 l -24.59,-1.11 c 2.98,-54.57 8.42,-152.84 15.07,-268.019 h 24.64"/><path id="path140" style="fill:#2f335d;fill-opacity:1;fill-rule:nonzero;stroke:none" d="m 3613.74,913.191 c 1.87,31.309 3.63,61.008 5.24,88.369 6.28,106.09 10.23,177.71 10.23,177.71 l -47.35,2.11 -24.55,1.11 -292.91,13.02 c 0,0 -3.22,-50.68 -7.61,-131.21 -2.34,-42.92 -5,-94.37 -7.71,-151.109 h 364.66"/><path id="path142" style="fill:#1c1a2c;fill-opacity:1;fill-rule:nonzero;stroke:none" d="m 3256.79,1064.3 c 79.5,-18.69 207.69,-44.93 362.19,-62.74 6.28,106.1 10.23,177.71 10.23,177.71 l -47.35,2.11 -24.55,1.11 -292.91,13.02 c 0,0 -3.22,-50.68 -7.61,-131.21"/><path id="path144" style="fill:#1c1a2c;fill-opacity:1;fill-rule:nonzero;stroke:none" d="m 3566.79,913.191 c 6.65,115.289 12.09,213.649 15.07,268.189 l -24.56,1.1 c -2.99,-54.78 -8.46,-153.59 -15.14,-269.289 h 24.63"/><path id="path146" style="fill:#385db4;fill-opacity:1;fill-rule:nonzero;stroke:none" d="m 4122.98,1138.67 c -74.28,-20.45 -148.56,-35.87 -222.83,-46.23 -25.83,-3.62 -51.64,-6.65 -77.45,-9.02 -34.81,-3.22 -69.61,-5.39 -104.4,-6.48 -57.54,-1.76 -115.08,-0.5 -172.65,3.76 -111.27,8.14 -222.52,27.57 -333.81,57.97 -1.04,103.76 0.52,475.87 8.31,834.78 0.38,16.1 0.73,32.2 1.13,48.24 0.05,3.4 0.16,6.8 0.23,10.2 0.07,3.71 0.18,7.42 0.28,11.09 0.25,11.39 0.55,22.73 0.83,34.03 0.57,23.06 1.18,45.92 1.84,68.56 0.4,13.53 0.8,26.99 1.2,40.32 0.08,2.77 0.18,5.52 0.26,8.27 0.28,8.79 0.55,17.54 0.83,26.23 0,0 0,0 0,0.03 0.11,2.7 0.17,5.39 0.28,8.09 0.25,8.01 0.53,15.98 0.78,23.86 0.26,6.73 0.48,13.36 0.71,20.02 8.62,242.11 21.22,433.08 39.26,459.99 30.6,45.65 134.82,106.24 218.65,155.56 29.86,17.54 65.52,35.79 85.94,49.33 29.77,-23.97 51.37,-45.62 95.5,-44.14 49.38,1.69 61.54,31.38 80.37,56.84 11.5,-7.46 40.69,-31.41 55.86,-40.3 12.98,-7.66 27.04,-15.78 41.71,-24.22 22.69,-12.98 46.81,-26.77 70.69,-40.83 35.41,-20.85 70.33,-42.34 99.28,-62.89 28.92,-20.54 51.88,-40.17 63.24,-57.18 16.38,-24.6 27,-183.87 33.82,-393.47 0.28,-7.33 0.48,-14.76 0.76,-22.24 0.02,-0.91 0.02,-1.82 0.02,-2.76 0.29,-7.6 0.51,-15.42 0.69,-23.23 0.68,-23.59 1.3,-47.68 1.96,-72.19 0.13,-5.16 0.25,-10.38 0.33,-15.57 0.1,-3.91 0.23,-7.84 0.26,-11.7 0.22,-10.08 0.44,-20.19 0.67,-30.39 0.05,-2.04 0.08,-4.08 0.13,-6.13 0.55,-26.89 1.08,-54.16 1.56,-81.66 0.15,-8.04 0.28,-16.1 0.41,-24.17 6.22,-377.33 4.78,-790.87 3.35,-902.37"/><path id="path148" style="fill:#3948a5;fill-opacity:1;fill-rule:nonzero;stroke:none" d="M 4119.63,2041.04 4002,1921.73 l -109.59,111.09 -109.56,-111.09 -109.99,111.55 -110.04,-111.55 -110.72,112.28 -110.74,-112.28 -119.57,121.25 c 0.25,11.39 0.55,22.73 0.83,34.03 0.57,23.06 1.18,45.92 1.84,68.56 l 116.9,118.55 110.74,-112.3 110.72,112.3 110.04,-111.55 109.99,111.55 109.56,-111.09 109.59,111.09 115.66,-117.25 c 0.55,-26.89 1.08,-54.16 1.56,-81.66 0.15,-8.04 0.28,-16.1 0.41,-24.17"/><path id="path150" style="fill:#3948a5;fill-opacity:1;fill-rule:nonzero;stroke:none" d="m 3916.59,1426.07 c -0.01,0 -0.02,0 -0.04,0 -157.49,0.7 -291.92,72.37 -376.96,132.37 -91.97,64.89 -147.72,130.64 -148.26,131.3 -2.7,3.2 -2.29,7.98 0.92,10.68 3.2,2.69 7.98,2.28 10.67,-0.93 0.55,-0.63 55.27,-65.13 145.75,-128.91 83.19,-58.64 214.55,-128.68 367.95,-129.35 4.19,-0.01 7.57,-3.43 7.55,-7.61 -0.02,-4.17 -3.41,-7.55 -7.58,-7.55"/><path id="path152" style="fill:#3948a5;fill-opacity:1;fill-rule:nonzero;stroke:none" d="m 3818.35,1519.23 c -134.1,26.36 -252.8,129.06 -258.19,133.78 -3.15,2.75 -3.47,7.54 -0.72,10.69 2.76,3.15 7.54,3.46 10.7,0.71 1.39,-1.21 141.08,-122 283.42,-135 4.24,-0.34 7.25,-4.06 6.87,-8.23 -0.38,-4.16 -4.07,-7.23 -8.23,-6.85 -11.36,1.03 -22.66,2.7 -33.85,4.9"/><path id="path154" style="fill:#3948a5;fill-opacity:1;fill-rule:nonzero;stroke:none" d="m 3549.78,2684.72 c -3.57,0 -6.74,2.54 -7.44,6.17 -0.78,4.11 1.93,8.07 6.04,8.86 192.01,36.43 249.89,159.96 250.45,161.2 1.73,3.82 6.22,5.51 10.03,3.79 3.82,-1.73 5.5,-6.21 3.78,-10.03 -2.43,-5.37 -61.75,-131.97 -261.44,-169.85 -0.48,-0.09 -0.96,-0.14 -1.42,-0.14"/><path id="path156" style="fill:#3948a5;fill-opacity:1;fill-rule:nonzero;stroke:none" d="m 3315.5,2352.21 v -0.05 c -0.18,-0.83 -0.56,-1.66 -1.04,-2.42 -2.87,-4.61 -5.88,-9.38 -8.87,-14.24 -0.15,-0.28 -0.33,-0.51 -0.45,-0.81 -9.6,-15.52 -19.61,-32.48 -29.93,-50.4 -0.01,-0.13 -0.06,-0.21 -0.17,-0.31 -16.1,-28.2 -32.78,-58.77 -49.12,-89.82 0.28,8.79 0.55,17.54 0.83,26.23 0,0 0,0 0,0.03 0.11,2.7 0.17,5.39 0.28,8.09 26.34,48.89 52.6,94.63 74.63,129.32 2.27,3.56 6.92,4.56 10.48,2.35 2.75,-1.79 4.01,-4.97 3.36,-7.97"/><path id="path158" style="fill:#f6876f;fill-opacity:1;fill-rule:nonzero;stroke:none" d="m 4283.09,2633.07 c 0,0 245.54,78.92 318.21,240.05 21.01,46.67 -152.13,520.46 -152.13,520.46 l -83.56,-4.05 c 0,0 23.8,-164.38 38.25,-257.46 11.86,-76.54 31.04,-167.98 37.52,-198.1 1.4,-6.53 2.19,-10.16 2.19,-10.16 -4.1,-0.7 -8.21,-1.5 -12.4,-2.33 -114.72,-23.31 -261.19,-98.03 -261.19,-98.03 l 113.11,-190.38"/><path id="path160" style="fill:#f25349;fill-opacity:1;fill-rule:nonzero;stroke:none" d="m 4505.25,2878.4 c 3.49,-2.54 8.48,-1.78 10.99,1.73 2.64,3.57 1.84,8.49 -1.73,10.98 -17.86,12.98 -44.82,28.22 -73.13,42.86 1.4,-6.53 2.19,-10.16 2.19,-10.16 -4.1,-0.7 -8.21,-1.5 -12.4,-2.33 28.83,-14.81 56.42,-30.23 74.08,-43.08"/><path id="path162" style="fill:#385db4;fill-opacity:1;fill-rule:nonzero;stroke:none" d="m 3907.37,2849.83 c 0,0 -74.27,-174.3 114.82,-271.34 130.86,-67.16 428.95,108.18 428.95,108.18 l -106.28,225.65 c 0,0 -272.74,-112.51 -437.49,-62.49"/><path id="path164" style="fill:#f6876f;fill-opacity:1;fill-rule:nonzero;stroke:none" d="m 4406.4,3659.96 c -7.41,-5.19 -5.89,-37.2 -2.64,-67.35 -1.04,-0.15 -2.1,-0.33 -3.17,-0.52 -8.79,40.24 -26.29,108.68 -41.26,95.62 -9.8,-8.55 3.33,-67.57 12.26,-102.87 -1.84,-0.57 -3.7,-1.15 -5.55,-1.75 -11.27,41.91 -35.56,122.61 -51.73,106.91 -10.79,-10.46 9.92,-81.53 21.42,-117.79 -1.61,-0.62 -3.17,-1.24 -4.71,-1.85 -11,35.17 -34.5,101.7 -50.6,86.07 -14.58,-14.15 27.2,-114.73 27.2,-114.73 v 0 l 10.94,-39.48 c 0,0 -13.01,-5.62 -33.33,17.36 -20.31,22.97 -44.6,27.02 -27.73,-6.23 19.07,-37.56 47.29,-64.5 59.72,-91.08 12.42,-26.59 51.5,-35.38 51.5,-35.38 l 78.47,3.79 c 0,0 15.22,132.64 -14.06,195.86 v 0 c -5.02,37.58 -13.86,82.45 -26.73,73.42"/><path id="path166" style="fill:#2f335d;fill-opacity:1;fill-rule:nonzero;stroke:none" d="m 3435.5,3354.09 c 0,-133.67 82.28,-225.76 215.89,-225.76 133.66,0 226.83,99.01 226.83,232.68 0,36.86 -6.01,71.28 -17.58,101.73 -0.68,1.82 -1.36,3.63 -2.1,5.38 -1.41,3.47 -2.89,6.92 -4.48,10.27 -2.32,5.16 -4.93,10.21 -7.65,15.09 -34.82,62.6 -97.2,102.41 -181.02,102.41 -160.25,0 -229.89,-108.14 -229.89,-241.8"/><path id="path168" style="fill:#f25349;fill-opacity:1;fill-rule:nonzero;stroke:none" d="m 3465.5,3296.54 c 0,0 -37.13,49.51 -64.74,8.57 -27.62,-40.94 11.43,-161.86 79.02,-132.34 l -14.28,123.77"/><path id="path170" style="fill:#e43342;fill-opacity:1;fill-rule:nonzero;stroke:none" d="m 3465.02,3210.13 c -2.49,0 -4.79,1.66 -5.5,4.18 -10.47,37.33 -49.15,52.46 -49.54,52.61 -2.94,1.13 -4.42,4.42 -3.31,7.37 1.12,2.94 4.41,4.43 7.36,3.32 1.81,-0.69 44.43,-17.23 56.5,-60.22 0.85,-3.03 -0.93,-6.19 -3.97,-7.04 -0.51,-0.14 -1.02,-0.22 -1.54,-0.22"/><path id="path172" style="fill:#e43342;fill-opacity:1;fill-rule:nonzero;stroke:none" d="m 3425.99,3228.94 c -1.07,0 -2.14,0.29 -3.1,0.91 -2.65,1.71 -3.41,5.24 -1.71,7.9 0.28,0.44 7.13,10.88 21.45,17.28 2.86,1.29 6.26,0 7.55,-2.88 1.27,-2.88 0,-6.26 -2.89,-7.55 -11.07,-4.95 -16.45,-12.96 -16.5,-13.04 -1.09,-1.7 -2.93,-2.62 -4.8,-2.62"/><path id="path174" style="fill:#f25349;fill-opacity:1;fill-rule:nonzero;stroke:none" d="m 3848.16,3296.54 c 0,0 37.14,49.51 64.75,8.57 27.62,-40.94 -11.43,-161.86 -79.02,-132.34 l 14.27,123.77"/><path id="path176" style="fill:#e43342;fill-opacity:1;fill-rule:nonzero;stroke:none" d="m 3848.65,3210.13 c 2.49,0 4.79,1.66 5.5,4.18 10.47,37.33 49.15,52.46 49.54,52.61 2.94,1.13 4.42,4.42 3.3,7.37 -1.11,2.94 -4.4,4.43 -7.35,3.32 -1.81,-0.69 -44.43,-17.23 -56.5,-60.22 -0.85,-3.03 0.92,-6.19 3.96,-7.04 0.52,-0.14 1.03,-0.22 1.55,-0.22"/><path id="path178" style="fill:#e43342;fill-opacity:1;fill-rule:nonzero;stroke:none" d="m 3887.69,3228.94 c 1.06,0 2.13,0.29 3.08,0.91 2.66,1.71 3.42,5.24 1.71,7.9 -0.28,0.44 -7.12,10.88 -21.44,17.28 -2.86,1.29 -6.26,0 -7.54,-2.88 -1.29,-2.88 0,-6.26 2.88,-7.55 11.07,-4.95 16.45,-12.96 16.5,-13.04 1.09,-1.7 2.93,-2.62 4.81,-2.62"/><path id="path180" style="fill:#f6876f;fill-opacity:1;fill-rule:nonzero;stroke:none" d="m 3748.24,3070.21 v -120.25 c 0,0 -35.86,-61.24 -84.36,-65.41 -48.45,-4.23 -91.5,52.73 -91.5,52.73 v 124.47 l 175.86,8.46"/><path id="path182" style="fill:#f25349;fill-opacity:1;fill-rule:nonzero;stroke:none" d="m 3748.24,3070.21 v -53.36 c -32.55,-36.11 -90.34,-45.13 -175.86,-32.5 v 77.4 l 175.86,8.46"/><path id="path184" style="fill:#f6876f;fill-opacity:1;fill-rule:nonzero;stroke:none" d="m 3875.02,3379.03 c -2.23,-46.73 -6.69,-105.17 -15.6,-151.9 -2.22,-11.65 -4.74,-22.62 -7.54,-32.45 -25.31,-88.6 -88.6,-240.55 -265.81,-177.26 -78.26,27.94 -114.54,115.11 -130.7,203.77 -10.97,60.21 -12.63,121.05 -11.83,164.53 0.86,44.38 25.08,84.94 63.7,106.82 104.6,59.3 214.97,37.19 287.63,9.25 50.44,-19.36 82.72,-68.89 80.15,-122.76"/><path id="path186" style="fill:#2f335d;fill-opacity:1;fill-rule:nonzero;stroke:none" d="m 3580.85,3280.84 c 0,-12.83 -6.61,-23.24 -14.78,-23.24 -8.15,0 -14.77,10.41 -14.77,23.24 0,12.84 6.62,23.25 14.77,23.25 8.17,0 14.78,-10.41 14.78,-23.25"/><path id="path188" style="fill:#2f335d;fill-opacity:1;fill-rule:nonzero;stroke:none" d="m 3755.02,3281.32 c 0,-12.83 -6.62,-23.24 -14.78,-23.24 -8.16,0 -14.78,10.41 -14.78,23.24 0,12.84 6.62,23.25 14.78,23.25 8.16,0 14.78,-10.41 14.78,-23.25"/><path id="path190" style="fill:#2f335d;fill-opacity:1;fill-rule:nonzero;stroke:none" d="m 3788.41,3361.2 c 0,0 -46.62,18.42 -82.52,2.92 l 3.59,-19.97 c 0,0 52.69,4.45 79.23,-6.3 2.38,7.68 2.73,15.45 -0.3,23.35"/><path id="path192" style="fill:#2f335d;fill-opacity:1;fill-rule:nonzero;stroke:none" d="m 3516.77,3361.2 c 0,0 46.62,18.42 82.52,2.92 l -3.59,-19.97 c 0,0 -52.68,4.45 -79.24,-6.3 -2.37,7.68 -2.72,15.45 0.31,23.35"/><path id="path194" style="fill:#f25349;fill-opacity:1;fill-rule:nonzero;stroke:none" d="m 3658.82,3183.44 c 9.64,0 19.2,3.75 20.68,4.35 2.91,1.2 4.31,4.53 3.13,7.45 -1.19,2.92 -4.53,4.33 -7.45,3.13 -5.16,-2.09 -17.54,-5.38 -22.91,-2.16 -1.04,0.62 -2.46,1.85 -2.82,5.32 -2.06,19.94 3.4,86.81 3.46,87.48 0.25,3.15 -2.08,5.91 -5.22,6.17 -3.16,0.26 -5.9,-2.08 -6.17,-5.23 -0.22,-2.79 -5.6,-68.6 -3.42,-89.6 0.81,-7.9 4.96,-11.95 8.3,-13.95 3.66,-2.19 8.04,-2.96 12.42,-2.96"/><path id="path196" style="fill:#ffffff;fill-opacity:1;fill-rule:nonzero;stroke:none" d="m 3582.11,3154.43 c 9.5,-32.96 36.49,-65.84 73.68,-66.3 37.15,0.46 64.14,33.34 73.64,66.3 h -147.32"/><path id="path198" style="fill:#f25349;fill-opacity:1;fill-rule:nonzero;stroke:none" d="m 3652.61,3052.33 c 14.78,0 27.32,7.49 27.85,7.81 2.69,1.63 3.56,5.14 1.92,7.84 -1.63,2.7 -5.14,3.56 -7.84,1.93 -0.1,-0.06 -10.41,-6.16 -21.93,-6.16 -10.57,0 -20.69,6.07 -20.79,6.13 -2.69,1.65 -6.21,0.83 -7.87,-1.86 -1.65,-2.68 -0.82,-6.2 1.87,-7.86 0.51,-0.32 12.83,-7.83 26.79,-7.83"/><path id="path200" style="fill:#2f335d;fill-opacity:1;fill-rule:nonzero;stroke:none" d="m 3868.97,3295.53 h -25.88 c 2.86,25.99 6.96,71.77 -14.39,78.33 -67.46,20.72 19.96,68.39 -10.49,92.16 -30.45,23.81 -106.24,13.61 -158.94,15.31 -53.03,1.72 -138.26,0.97 -158.94,-3.83 -20.74,-4.74 -9.37,-39.17 -1.78,-65.84 7.66,-26.63 -25.42,-56.11 -30.95,-83.7 -1.59,-7.92 -1.26,-19.68 0.01,-32.43 h -21.58 c -2.56,33.58 -2.95,64.84 -2.49,90.19 0.86,44.38 25.08,84.94 63.7,106.82 104.6,59.3 214.97,37.19 287.63,9.25 50.44,-19.36 82.72,-68.89 80.15,-122.76 -1.22,-25.6 -3.12,-54.72 -6.05,-83.5"/><path id="path202" style="fill:#ffffff;fill-opacity:1;fill-rule:nonzero;stroke:none" d="m 3563.48,3332.81 c -30.11,0 -54.59,-24.49 -54.59,-54.59 0,-30.1 24.48,-54.59 54.59,-54.59 30.09,0 54.59,24.49 54.59,54.59 0,30.1 -24.5,54.59 -54.59,54.59 z m 0,-119.27 c -35.67,0 -64.68,29.02 -64.68,64.68 0,35.66 29.01,64.67 64.68,64.67 35.65,0 64.66,-29.01 64.66,-64.67 0,-35.66 -29.01,-64.68 -64.66,-64.68"/><path id="path204" style="fill:#ffffff;fill-opacity:1;fill-rule:nonzero;stroke:none" d="m 3740.24,3332.81 c -30.1,0 -54.59,-24.49 -54.59,-54.59 0,-30.1 24.49,-54.59 54.59,-54.59 30.1,0 54.59,24.49 54.59,54.59 0,30.1 -24.49,54.59 -54.59,54.59 z m 0,-119.27 c -35.66,0 -64.67,29.02 -64.67,64.68 0,35.66 29.01,64.67 64.67,64.67 35.66,0 64.67,-29.01 64.67,-64.67 0,-35.66 -29.01,-64.68 -64.67,-64.68"/><path id="path206" style="fill:#ffffff;fill-opacity:1;fill-rule:nonzero;stroke:none" d="m 3509.73,3299.05 c -1.28,0 -2.56,0.48 -3.55,1.46 v 0 c -0.29,0.29 -29.67,28.79 -68.21,19.8 -2.71,-0.64 -5.42,1.05 -6.06,3.76 -0.62,2.71 1.06,5.42 3.77,6.06 44.08,10.28 76.25,-21.13 77.61,-22.47 1.96,-1.96 1.98,-5.16 0.01,-7.13 -0.98,-0.99 -2.27,-1.48 -3.57,-1.48"/><path id="path208" style="fill:#ffffff;fill-opacity:1;fill-rule:nonzero;stroke:none" d="m 3795.18,3299.05 c -1.65,0 -3.27,0.8 -4.23,2.28 -1.53,2.33 -0.87,5.45 1.46,6.98 1.93,1.26 47.69,30.78 86.63,24.37 2.75,-0.46 4.6,-3.05 4.15,-5.8 -0.45,-2.74 -3.02,-4.6 -5.79,-4.16 -35.05,5.78 -79.03,-22.57 -79.48,-22.85 -0.85,-0.56 -1.8,-0.82 -2.74,-0.82"/><path id="path210" style="fill:#ffffff;fill-opacity:1;fill-rule:nonzero;stroke:none" d="m 3679.12,3292.74 c -0.11,0.16 -12.09,16.36 -27.83,16.36 -15.6,0 -26.42,-16.17 -26.52,-16.33 l -8.45,5.51 c 0.55,0.85 13.86,20.9 34.97,20.9 20.96,0 35.4,-19.7 36,-20.54 l -8.17,-5.9"/><path id="path212" style="fill:#f6876f;fill-opacity:1;fill-rule:nonzero;stroke:none" d="m 3294.2,2361.71 c 0,0 -68.13,-131.92 -148.35,-236.41 -23.67,-30.83 -48.37,-59.26 -72.72,-81.21 -39.44,-35.61 -77.91,-54.24 -109.23,-38.44 -116.19,58.58 -375.21,524.73 -375.21,524.73 l 63.79,75.66 c 0,0 115.28,-133.13 199.59,-212.8 77.75,-73.46 137.54,-128.39 137.54,-128.39 10.76,16.38 22.23,34.33 34.15,53.33 12.68,20.17 25.83,41.52 39.22,63.47 97.08,159.39 204.8,350.73 204.8,350.73 l 26.42,-370.67"/><path id="path214" style="fill:#f25349;fill-opacity:1;fill-rule:nonzero;stroke:none" d="m 3145.85,2125.3 c -23.67,-30.83 -48.37,-59.26 -72.72,-81.21 l -49.37,274.09 c 12.68,20.17 25.83,41.52 39.22,63.47 l 82.87,-256.35"/><path id="path216" style="fill:#385db4;fill-opacity:1;fill-rule:nonzero;stroke:none" d="m 3267.78,2732.38 -232.84,-366.2 78.15,-322.09 192.67,313.74 c 0,0 23.37,214.64 -37.98,374.55"/><path id="path218" style="fill:#385db4;fill-opacity:1;fill-rule:nonzero;stroke:none" d="m 2975.01,913.191 c -16.62,92.159 -33.02,196.099 -47.92,297.029 -3.26,22.33 -6.47,44.46 -9.62,66.29 -11.94,83.58 -22.62,162.6 -31.18,228.17 -3.27,24.91 -6.2,47.91 -8.87,68.43 -8.31,65.45 -13.19,106.11 -13.19,106.11 l -367.69,-13.9 -368.82,13.9 c 0,0 -9.5,-80.45 -24.72,-197.09 -2.79,-21.23 -5.75,-43.62 -8.87,-66.99 -8.19,-61.22 -17.55,-128.82 -27.62,-198.04 -0.15,-1.01 -0.3,-2.02 -0.45,-3.04 -3.16,-21.57 -6.35,-43.29 -9.66,-65.01 -0.04,-0.3 -0.07,-0.56 -0.15,-0.87 v -0.04 c -7.89,-52.49 -16.16,-104.91 -24.58,-155.339 -3.45,-20.813 -6.95,-41.262 -10.48,-61.172 -1.09,-6.199 -2.19,-12.34 -3.28,-18.438 h 957.1"/><path id="path220" style="fill:#3948a5;fill-opacity:1;fill-rule:nonzero;stroke:none" d="m 2212.48,1568.79 c 0,-19.14 -15.52,-34.66 -34.66,-34.66 -19.14,0 -34.66,15.52 -34.66,34.66 0,19.14 15.52,34.66 34.66,34.66 19.14,0 34.66,-15.52 34.66,-34.66"/><path id="path222" style="fill:#3948a5;fill-opacity:1;fill-rule:nonzero;stroke:none" d="m 2298.47,1434.53 c 0,-19.14 -15.52,-34.66 -34.65,-34.66 -19.14,0 -34.66,15.52 -34.66,34.66 0,19.14 15.52,34.66 34.66,34.66 19.13,0 34.65,-15.52 34.65,-34.66"/><path id="path224" style="fill:#3948a5;fill-opacity:1;fill-rule:nonzero;stroke:none" d="m 2467.67,1503.84 c 0,-19.14 -15.52,-34.65 -34.66,-34.65 -19.14,0 -34.66,15.51 -34.66,34.65 0,19.14 15.52,34.66 34.66,34.66 19.14,0 34.66,-15.52 34.66,-34.66"/><path id="path226" style="fill:#3948a5;fill-opacity:1;fill-rule:nonzero;stroke:none" d="m 2200.63,1291.95 c 0,-19.14 -15.52,-34.66 -34.66,-34.66 -19.14,0 -34.65,15.52 -34.65,34.66 0,19.14 15.51,34.65 34.65,34.65 19.14,0 34.66,-15.51 34.66,-34.65"/><path id="path228" style="fill:#3948a5;fill-opacity:1;fill-rule:nonzero;stroke:none" d="m 2412.05,1306.77 c 0,-19.14 -15.52,-34.65 -34.66,-34.65 -19.13,0 -34.65,15.51 -34.65,34.65 0,19.14 15.52,34.66 34.65,34.66 19.14,0 34.66,-15.52 34.66,-34.66"/><path id="path230" style="fill:#3948a5;fill-opacity:1;fill-rule:nonzero;stroke:none" d="m 2125.54,1449.63 c 0,-18.04 -13.75,-32.88 -31.41,-34.49 3.12,23.37 6.08,45.76 8.87,66.99 13.19,-4.92 22.54,-17.59 22.54,-32.5"/><path id="path232" style="fill:#3948a5;fill-opacity:1;fill-rule:nonzero;stroke:none" d="m 2756.58,1103.17 c 0,-19.14 -15.52,-34.65 -34.66,-34.65 -19.14,0 -34.65,15.51 -34.65,34.65 0,19.13 15.51,34.65 34.65,34.65 19.14,0 34.66,-15.52 34.66,-34.65"/><path id="path234" style="fill:#3948a5;fill-opacity:1;fill-rule:nonzero;stroke:none" d="m 2740.2,1291.95 c 0,-19.14 -15.51,-34.66 -34.64,-34.66 -19.14,0 -34.66,15.52 -34.66,34.66 0,19.14 15.52,34.65 34.66,34.65 19.13,0 34.64,-15.51 34.64,-34.65"/><path id="path236" style="fill:#3948a5;fill-opacity:1;fill-rule:nonzero;stroke:none" d="m 2927.09,1210.22 c -4.17,-1.76 -8.79,-2.74 -13.6,-2.74 -19.13,0 -34.64,15.53 -34.64,34.65 0,19.13 15.51,34.65 34.64,34.65 1.35,0 2.67,-0.08 3.98,-0.27 3.15,-21.83 6.36,-43.96 9.62,-66.29"/><path id="path238" style="fill:#3948a5;fill-opacity:1;fill-rule:nonzero;stroke:none" d="m 2774.86,964.82 c 0,-19.14 -15.51,-34.648 -34.66,-34.648 -19.14,0 -34.64,15.508 -34.64,34.648 0,19.141 15.5,34.649 34.64,34.649 19.15,0 34.66,-15.508 34.66,-34.649"/><path id="path240" style="fill:#3948a5;fill-opacity:1;fill-rule:nonzero;stroke:none" d="m 2923.1,1020.15 c 0,-19.14 -15.52,-34.658 -34.66,-34.658 -19.14,0 -34.66,15.518 -34.66,34.658 0,19.13 15.52,34.64 34.66,34.64 19.14,0 34.66,-15.51 34.66,-34.64"/><path id="path242" style="fill:#3948a5;fill-opacity:1;fill-rule:nonzero;stroke:none" d="m 2614.65,913.191 c -6.23,9.11 -16.68,15.11 -28.57,15.11 -11.87,0 -22.32,-6 -28.55,-15.11 h 57.12"/><path id="path244" style="fill:#3948a5;fill-opacity:1;fill-rule:nonzero;stroke:none" d="m 2177.82,1073.04 c 0,-19.14 -15.52,-34.66 -34.66,-34.66 -19.13,0 -34.65,15.52 -34.65,34.66 0,19.13 15.52,34.65 34.65,34.65 19.14,0 34.66,-15.52 34.66,-34.65"/><path id="path246" style="fill:#3948a5;fill-opacity:1;fill-rule:nonzero;stroke:none" d="m 2086.39,1182.5 c 0,-17.59 -13.11,-32.13 -30.14,-34.32 0.08,0.31 0.11,0.57 0.15,0.87 3.31,21.72 6.5,43.44 9.66,65.01 11.99,-5.49 20.33,-17.55 20.33,-31.56"/><path id="path248" style="fill:#3948a5;fill-opacity:1;fill-rule:nonzero;stroke:none" d="m 2045.88,964.852 c 0,-15.672 -10.41,-28.891 -24.69,-33.223 3.53,19.91 7.03,40.359 10.48,61.172 8.61,-6.313 14.21,-16.492 14.21,-27.949"/><path id="path250" style="fill:#3948a5;fill-opacity:1;fill-rule:nonzero;stroke:none" d="m 2263.82,950.191 c 0,-19.152 -15.52,-34.66 -34.66,-34.66 -19.14,0 -34.65,15.508 -34.65,34.66 0,19.141 15.51,34.641 34.65,34.641 19.14,0 34.66,-15.5 34.66,-34.641"/><path id="path252" style="fill:#3948a5;fill-opacity:1;fill-rule:nonzero;stroke:none" d="m 2446.7,977.32 c 0,-19.14 -15.51,-34.648 -34.65,-34.648 -19.14,0 -34.66,15.508 -34.66,34.648 0,19.141 15.52,34.65 34.66,34.65 19.14,0 34.65,-15.509 34.65,-34.65"/><path id="path254" style="fill:#3948a5;fill-opacity:1;fill-rule:nonzero;stroke:none" d="m 2316.23,1147.71 c 0,-19.15 -15.52,-34.66 -34.66,-34.66 -19.14,0 -34.65,15.51 -34.65,34.66 0,19.14 15.51,34.65 34.65,34.65 19.14,0 34.66,-15.51 34.66,-34.65"/><path id="path256" style="fill:#3948a5;fill-opacity:1;fill-rule:nonzero;stroke:none" d="m 2502.32,1182.36 c 0,-19.14 -15.51,-34.65 -34.65,-34.65 -19.14,0 -34.66,15.51 -34.66,34.65 0,19.13 15.52,34.65 34.66,34.65 19.14,0 34.65,-15.52 34.65,-34.65"/><path id="path258" style="fill:#3948a5;fill-opacity:1;fill-rule:nonzero;stroke:none" d="m 2586.08,1365.22 c 0,-19.14 -15.5,-34.65 -34.64,-34.65 -19.15,0 -34.66,15.51 -34.66,34.65 0,19.15 15.51,34.65 34.66,34.65 19.14,0 34.64,-15.5 34.64,-34.65"/><path id="path260" style="fill:#3948a5;fill-opacity:1;fill-rule:nonzero;stroke:none" d="m 2886.29,1504.68 c -2.41,-0.57 -4.89,-0.83 -7.44,-0.83 -19.17,0 -34.65,15.52 -34.65,34.65 0,18.64 14.73,33.89 33.22,34.61 2.67,-20.52 5.6,-43.52 8.87,-68.43"/><path id="path262" style="fill:#3948a5;fill-opacity:1;fill-rule:nonzero;stroke:none" d="m 2705.56,1503.84 c 0,-19.14 -15.52,-34.65 -34.66,-34.65 -19.14,0 -34.66,15.51 -34.66,34.65 0,19.14 15.52,34.66 34.66,34.66 19.14,0 34.66,-15.52 34.66,-34.66"/><path id="path264" style="fill:#3948a5;fill-opacity:1;fill-rule:nonzero;stroke:none" d="m 2832.48,1380.33 c 0,-19.13 -15.52,-34.65 -34.66,-34.65 -19.14,0 -34.66,15.52 -34.66,34.65 0,19.14 15.52,34.66 34.66,34.66 19.14,0 34.66,-15.52 34.66,-34.66"/><path id="path266" style="fill:#3948a5;fill-opacity:1;fill-rule:nonzero;stroke:none" d="m 2620.74,1073.04 c 0,-19.14 -15.52,-34.66 -34.66,-34.66 -19.14,0 -34.64,15.52 -34.64,34.66 0,19.13 15.5,34.65 34.64,34.65 19.14,0 34.66,-15.52 34.66,-34.65"/><path id="path268" style="fill:#3d89d1;fill-opacity:1;fill-rule:nonzero;stroke:none" d="m 2886.59,1670.13 c -193.97,-126.63 -550.13,-116.71 -773.93,0 21.38,133.17 49.53,266.49 43.48,443.75 -0.68,19.42 -1.51,38.74 -2.48,57.86 -0.87,16.65 -1.84,33.18 -2.9,49.53 -19.31,294.86 -69.63,535.96 -44.9,567.1 10.78,13.65 28.78,28.38 50.99,43.45 8.72,5.93 18.04,11.94 27.88,17.96 23.22,14.17 49.04,28.44 74.97,42.34 61.51,32.85 123.96,63.32 155.27,84.14 31.04,-13.53 55.76,-20.93 82.4,-20.78 0.72,0 1.5,0 2.29,0.08 0.72,-0.08 1.51,-0.08 2.22,-0.08 26.65,-0.15 51.36,7.25 82.45,20.78 29.04,-19.31 83.72,-46.26 139.52,-75.64 40.99,-21.61 82.6,-44.53 114.98,-66.78 21.2,-14.54 38.51,-28.82 49.11,-42.19 12.26,-15.45 7.11,-83.16 -3.38,-183.49 -10.37,-98.72 -25.89,-229.07 -35.28,-372.35 -2.6,-39.79 -4.74,-80.57 -6.17,-121.93 -6.01,-177.26 22.09,-310.58 43.48,-443.75"/><path id="path270" style="fill:#385db4;fill-opacity:1;fill-rule:nonzero;stroke:none" d="m 2767.97,1817.4 c -0.01,0 -0.02,0 -0.03,0 -156.2,0.69 -289.53,71.76 -373.86,131.27 -91.21,64.36 -146.49,129.56 -147.04,130.22 -2.67,3.17 -2.26,7.92 0.91,10.58 3.18,2.68 7.92,2.27 10.59,-0.91 0.54,-0.63 54.81,-64.6 144.55,-127.85 82.5,-58.15 212.78,-127.61 364.91,-128.28 4.15,-0.02 7.51,-3.4 7.49,-7.55 -0.02,-4.14 -3.39,-7.48 -7.52,-7.48"/><path id="path272" style="fill:#385db4;fill-opacity:1;fill-rule:nonzero;stroke:none" d="m 2664.56,1908.33 c -133,26.14 -250.72,128 -256.06,132.68 -3.13,2.73 -3.45,7.48 -0.72,10.6 2.74,3.13 7.48,3.43 10.61,0.71 1.38,-1.21 139.92,-121 281.09,-133.88 4.2,-0.34 7.18,-4.04 6.81,-8.17 -0.38,-4.13 -4.03,-7.18 -8.17,-6.8 -11.25,1.02 -22.47,2.68 -33.56,4.86"/><path id="path274" style="fill:#385db4;fill-opacity:1;fill-rule:nonzero;stroke:none" d="m 2467.66,2596.4 c -3.54,0 -6.69,2.52 -7.38,6.12 -0.77,4.08 1.91,8.01 5.98,8.78 190.44,36.14 247.83,158.65 248.39,159.88 1.71,3.78 6.16,5.46 9.95,3.75 3.78,-1.71 5.46,-6.16 3.75,-9.94 -2.41,-5.33 -61.25,-130.88 -259.28,-168.45 -0.48,-0.09 -0.95,-0.14 -1.41,-0.14"/><path id="path276" style="fill:#f6876f;fill-opacity:1;fill-rule:nonzero;stroke:none" d="m 2723.83,2900.62 c -37.79,-86.22 -130.72,-175.5 -251.56,-154.63 -117.02,20.23 -172.52,82.12 -212.57,146.14 61.53,32.86 123.97,63.29 155.26,84.12 31.05,-13.51 55.77,-20.91 82.39,-20.79 0.73,0 1.53,0 2.3,0.09 0.72,-0.09 1.53,-0.09 2.25,-0.09 26.62,-0.12 51.35,7.28 82.44,20.79 29.03,-19.3 83.72,-46.24 139.49,-75.63"/><path id="path278" style="fill:#ffffff;fill-opacity:1;fill-rule:nonzero;stroke:none" d="m 2622.81,2969.94 c -3.34,0.04 -5.99,-2.64 -6.01,-5.94 -0.04,-4.84 -2.01,-118.81 -104.32,-127.64 -94.89,-8.24 -134.17,82.59 -146.31,120.28 -0.71,2.21 -2.75,3.69 -5.08,3.69 h -1.12 c -3.65,0 -6.23,-3.56 -5.08,-7.02 12.95,-38.88 54.31,-132.77 150.98,-129.33 2.51,0.1 5.06,0.25 7.64,0.47 113.22,9.77 115.23,138.19 115.24,139.49 0.02,3.29 -2.64,5.98 -5.94,6"/><path id="path280" style="fill:#2f335d;fill-opacity:1;fill-rule:nonzero;stroke:none" d="m 2695.13,3575.7 c 0,0 91.43,-141.62 81.41,-289.13 -10.02,-147.51 13.48,-317.8 -118.51,-310.32 -132,7.49 -367.44,-52.92 -442.27,61.97 -74.83,114.9 479.37,537.48 479.37,537.48"/><path id="path282" style="fill:#1c1a2c;fill-opacity:1;fill-rule:nonzero;stroke:none" d="m 2729.01,3315.3 c 0,0 23.73,-213.82 -77.72,-272.69 -101.47,-58.87 -174.89,6.85 -174.89,6.85 0,0 213.85,298.04 252.61,265.84"/><path id="path284" style="fill:#f25349;fill-opacity:1;fill-rule:nonzero;stroke:none" d="m 2307.57,3316.29 c 0,0 -36.43,48.58 -63.52,8.41 -27.09,-40.17 11.2,-158.8 77.53,-129.84 l -14.01,121.43"/><path id="path286" style="fill:#e43342;fill-opacity:1;fill-rule:nonzero;stroke:none" d="m 2307.1,3231.52 c -2.45,0 -4.7,1.62 -5.4,4.09 -10.27,36.63 -48.22,51.48 -48.6,51.62 -2.89,1.1 -4.35,4.34 -3.25,7.23 1.1,2.89 4.33,4.35 7.22,3.25 1.77,-0.66 43.59,-16.89 55.43,-59.07 0.83,-2.98 -0.91,-6.08 -3.89,-6.91 -0.5,-0.14 -1.01,-0.21 -1.51,-0.21"/><path id="path288" style="fill:#e43342;fill-opacity:1;fill-rule:nonzero;stroke:none" d="m 2268.79,3249.97 c -1.04,0 -2.09,0.29 -3.02,0.89 -2.61,1.68 -3.36,5.15 -1.68,7.75 0.28,0.43 6.99,10.67 21.04,16.96 2.8,1.27 6.13,0 7.4,-2.83 1.26,-2.83 0,-6.14 -2.83,-7.4 -10.86,-4.87 -16.14,-12.72 -16.19,-12.8 -1.07,-1.67 -2.88,-2.57 -4.72,-2.57"/><path id="path290" style="fill:#f25349;fill-opacity:1;fill-rule:nonzero;stroke:none" d="m 2683.02,3316.29 c 0,0 36.42,48.58 63.51,8.41 27.09,-40.17 -11.2,-158.8 -77.53,-129.84 l 14.02,121.43"/><path id="path292" style="fill:#e43342;fill-opacity:1;fill-rule:nonzero;stroke:none" d="m 2683.49,3231.52 c 2.45,0 4.69,1.62 5.39,4.09 10.28,36.63 48.22,51.48 48.61,51.62 2.88,1.1 4.34,4.34 3.24,7.23 -1.09,2.89 -4.32,4.35 -7.21,3.25 -1.78,-0.66 -43.6,-16.89 -55.43,-59.07 -0.83,-2.98 0.9,-6.08 3.88,-6.91 0.51,-0.14 1.02,-0.21 1.52,-0.21"/><path id="path294" style="fill:#e43342;fill-opacity:1;fill-rule:nonzero;stroke:none" d="m 2721.79,3249.97 c 1.04,0 2.09,0.29 3.02,0.89 2.61,1.68 3.36,5.15 1.68,7.75 -0.27,0.43 -6.99,10.67 -21.03,16.96 -2.81,1.27 -6.14,0 -7.4,-2.83 -1.26,-2.83 0,-6.14 2.82,-7.4 10.87,-4.87 16.14,-12.72 16.19,-12.8 1.07,-1.67 2.88,-2.57 4.72,-2.57"/><path id="path296" style="fill:#f6876f;fill-opacity:1;fill-rule:nonzero;stroke:none" d="m 2584.97,3094.23 v -117.98 c 0,0 -35.18,-60.09 -82.76,-64.17 -47.54,-4.16 -89.78,51.73 -89.78,51.73 v 122.13 l 172.54,8.29"/><path id="path298" style="fill:#f25349;fill-opacity:1;fill-rule:nonzero;stroke:none" d="m 2584.97,3094.23 v -52.35 c -31.92,-35.43 -88.61,-47.98 -172.52,-35.6 l -0.02,79.66 172.54,8.29"/><path id="path300" style="fill:#f6876f;fill-opacity:1;fill-rule:nonzero;stroke:none" d="m 2709.36,3397.23 c -2.18,-45.85 -6.56,-103.19 -15.31,-149.04 -2.17,-11.43 -4.65,-22.19 -7.39,-31.83 -24.83,-86.93 -86.93,-236.02 -260.79,-173.92 -76.79,27.41 -112.38,112.94 -128.24,199.93 -10.76,59.07 -12.39,118.76 -11.6,161.41 0.84,43.55 24.6,83.35 62.49,104.81 102.62,58.18 210.91,36.49 282.2,9.09 49.49,-19 81.16,-67.6 78.64,-120.45"/><path id="path302" style="fill:#2f335d;fill-opacity:1;fill-rule:nonzero;stroke:none" d="m 2418.73,3309.37 c 0,-12.59 -6.49,-22.8 -14.5,-22.8 -8.01,0 -14.5,10.21 -14.5,22.8 0,12.59 6.49,22.8 14.5,22.8 8.01,0 14.5,-10.21 14.5,-22.8"/><path id="path304" style="fill:#2f335d;fill-opacity:1;fill-rule:nonzero;stroke:none" d="m 2597.75,3309.37 c 0,-12.59 -6.49,-22.8 -14.5,-22.8 -8,0 -14.49,10.21 -14.49,22.8 0,12.59 6.49,22.8 14.49,22.8 8.01,0 14.5,-10.21 14.5,-22.8"/><path id="path306" style="fill:#2f335d;fill-opacity:1;fill-rule:nonzero;stroke:none" d="m 2375.51,3377.26 c 12.05,3.4 36.37,9.21 62.02,9.29 6.75,0.02 11.92,-5.98 10.73,-12.63 l -0.03,-0.17 c -0.96,-5.3 -5.7,-9.06 -11.09,-8.8 -17.45,0.81 -63.28,-1.64 -84.92,-10.41 -0.44,3.76 1.79,7.88 4.94,11.53 4.77,5.54 11.32,9.2 18.35,11.19"/><path id="path308" style="fill:#2f335d;fill-opacity:1;fill-rule:nonzero;stroke:none" d="m 2609.76,3376.79 c -12.05,3.41 -36.36,9.22 -62.02,9.29 -6.75,0.02 -11.92,-5.98 -10.73,-12.62 l 0.03,-0.17 c 0.96,-5.31 5.7,-9.06 11.09,-8.81 17.46,0.81 63.28,-1.64 84.92,-10.41 0.44,3.76 -1.79,7.88 -4.93,11.54 -4.78,5.54 -11.32,9.19 -18.36,11.18"/><path id="path310" style="fill:#f25349;fill-opacity:1;fill-rule:nonzero;stroke:none" d="m 2497.24,3205.33 c -4.29,0 -8.6,0.75 -12.19,2.9 -3.27,1.97 -7.34,5.94 -8.15,13.69 -2.13,20.59 3.14,85.17 3.37,87.91 0.25,3.09 2.95,5.38 6.04,5.13 3.09,-0.26 5.38,-2.97 5.13,-6.05 -0.05,-0.66 -5.41,-66.27 -3.39,-85.84 0.35,-3.4 1.74,-4.61 2.76,-5.21 5.26,-3.16 17.42,0.06 22.48,2.12 2.86,1.17 6.14,-0.21 7.31,-3.08 1.16,-2.86 -0.21,-6.13 -3.07,-7.3 -1.46,-0.6 -10.84,-4.27 -20.29,-4.27"/><path id="path312" style="fill:#ffffff;fill-opacity:1;fill-rule:nonzero;stroke:none" d="m 2426.06,3169.94 c 4.24,-21.32 18.32,-60.55 65.77,-60.55 47.55,0 60.89,35.85 65.47,60.55 h -131.24"/><path id="path314" style="fill:#f25349;fill-opacity:1;fill-rule:nonzero;stroke:none" d="m 2491.15,3076.69 c -13.69,0 -25.78,7.37 -26.3,7.68 -2.63,1.63 -3.44,5.09 -1.81,7.72 1.62,2.63 5.06,3.44 7.7,1.83 v 0 c 0.1,-0.06 9.96,-6.02 20.41,-6.02 11.3,0 21.42,5.98 21.53,6.05 2.65,1.58 6.09,0.73 7.68,-1.92 1.59,-2.65 0.75,-6.08 -1.89,-7.68 -0.52,-0.32 -12.82,-7.66 -27.32,-7.66"/><path id="path316" style="fill:#2f335d;fill-opacity:1;fill-rule:nonzero;stroke:none" d="m 2731.92,3406.36 c -1.8,-5.11 -6.79,-8.38 -13.48,-10.33 0.49,-12.36 -0.81,-27.23 -2.03,-41.48 -6.92,-81.01 -27.36,-95.24 -31.98,-75.21 -3.04,13.31 -2.86,89.6 -1.39,114.47 -16.01,1.05 -29.69,3.72 -29.69,3.72 l -18.79,78.65 -6.57,-77.67 c -28.19,-9.81 -93.95,5.9 -93.95,5.9 l -22.05,77.52 -13.64,-74.59 c -42.28,-20.59 -95.11,-6.88 -95.11,-6.88 l -12.14,80.46 -28.03,-80.46 c 0,0 -90.18,-32.35 -91.16,0 -0.6,18.83 13.19,71.85 24.84,112.92 12.7,44.79 42.12,82.64 81.92,103.98 111.86,60.05 230.16,28.1 270.73,3.87 86.06,-51.37 82.52,-214.87 82.52,-214.87"/><path id="path318" style="fill:#2f335d;fill-opacity:1;fill-rule:nonzero;stroke:none" d="m 2321.58,3569.71 c 0,0 -74.25,-88.3 -98.67,-246.01 -24.42,-157.71 -58.24,-274.24 36.79,-326.31 102.85,-56.36 93.95,59.23 92.47,90.65 -1.49,31.41 -88.98,117.29 -30.59,359.15 18.85,78.08 0,122.52 0,122.52"/><path id="path320" style="fill:#1c1a2c;fill-opacity:1;fill-rule:nonzero;stroke:none" d="m 2304.23,3243.81 c 0,0 0,-0.08 0,-0.19 0.03,-1.16 0.11,-7.44 0.56,-17.25 0.22,-6.09 0.6,-13.49 1.17,-21.91 3.49,-53.13 13.83,-144.89 44.19,-176.72 11.98,-12.59 35.09,-18.9 62.3,-21.46 v 41.75 c -28.68,13.61 -51.03,35.96 -68.35,63.47 -10.71,23.18 -29.16,59.48 -37.81,116.56 l -2.06,15.75"/><path id="path322" style="fill:#ffffff;fill-opacity:1;fill-rule:nonzero;stroke:none" d="m 2710.7,3192.2 c 0,-7.26 -5.89,-13.14 -13.13,-13.14 -7.26,0 -13.14,5.88 -13.14,13.14 0,7.25 5.88,13.13 13.14,13.13 7.24,0 13.13,-5.88 13.13,-13.13"/><path id="path324" style="fill:#3d89d1;fill-opacity:1;fill-rule:nonzero;stroke:none" d="m 2978.3,2202.98 c -37.19,-106.49 -203.77,-98.73 -393.49,-40.52 -0.27,0.08 -0.54,0.18 -0.82,0.25 -0.6,0.18 -1.17,0.38 -1.77,0.55 l -26.1,8.32 c -3.6,1.18 -7.22,2.38 -10.82,3.61 -20.45,6.84 -41.04,14.24 -61.72,22.1 -67.78,25.74 -136.1,56.25 -200.51,88.8 l 0.45,1.13 19.4,50.39 6.62,17.15 c 0,0 351.71,-38.32 528.56,-1.35 3,0.62 5.92,1.25 8.79,1.92 -0.69,3.93 -0.91,7.93 -2.02,11.67 -93.7,319 8.78,380.16 43.07,424.66 0,0 160.58,-387.67 90.36,-588.68"/><path id="path326" style="fill:#385db4;fill-opacity:1;fill-rule:nonzero;stroke:none" d="m 2920.99,2301.71 c -1.05,-0.5 -2.18,-0.74 -3.28,-0.74 -2.77,0 -5.44,1.54 -6.74,4.2 -13.4,27.44 -58.9,43.77 -72.87,48.24 3,0.62 5.92,1.25 8.79,1.92 -0.69,3.93 -1.36,7.82 -2.02,11.67 17.78,-5.87 64.19,-23.77 79.56,-55.26 1.83,-3.7 0.28,-8.2 -3.44,-10.03"/><path id="path328" style="fill:#385db4;fill-opacity:1;fill-rule:nonzero;stroke:none" d="m 2428.37,2315.08 c -71.78,0 -130.07,4.12 -135.15,4.49 -4.13,0.3 -7.23,3.9 -6.94,8.03 0.31,4.13 3.9,7.2 8.03,6.93 2.65,-0.18 266.48,-18.86 370.5,23.34 3.83,1.55 8.21,-0.28 9.77,-4.13 1.55,-3.83 -0.29,-8.2 -4.13,-9.77 -57.58,-23.35 -158.89,-28.89 -242.08,-28.89"/><path id="path330" style="fill:#385db4;fill-opacity:1;fill-rule:nonzero;stroke:none" d="m 2556.12,2171.58 c 0.02,0 0.02,0 0.02,0 60.2,16.6 114.91,32.78 146.51,42.9 43.86,14.07 80.16,58.41 96.66,96.11 1.65,3.79 6.07,5.52 9.87,3.84 3.8,-1.65 5.53,-6.07 3.88,-9.87 -17.86,-40.76 -57.49,-88.86 -105.83,-104.38 -22.93,-7.36 -57.95,-17.85 -98.43,-29.4 -17.25,-4.93 -35.59,-4.65 -52.68,0.8 v 0"/><path id="path332" style="fill:#3d89d1;fill-opacity:1;fill-rule:nonzero;stroke:none" d="m 2718.37,2223.15 c -543.56,-183.07 -710.78,-63.27 -710.78,-63.27 -36.59,330.93 98.25,628.5 98.25,628.5 39.85,-65.68 84.89,-180.34 84.89,-180.34 l 11.9,-253.66 -0.9,-7.05 -0.43,-3.33 -2.24,-17.34 -0.06,-0.35 c 1.16,-0.25 2.33,-0.5 3.5,-0.75 164.43,-34.69 465.13,4.08 465.13,4.08 l 50.74,-106.49"/><path id="path334" style="fill:#385db4;fill-opacity:1;fill-rule:nonzero;stroke:none" d="m 2202.5,2325.56 c -29.34,-24.59 -57.21,-52.94 -82.06,-85.51 -2.5,-3.3 -7.22,-3.95 -10.52,-1.43 -3.3,2.5 -3.92,7.2 -1.45,10.5 0.03,0 0.03,0.03 0.03,0.03 27.92,36.67 59.56,68.06 92.8,94.85 l -2.24,-17.34 -0.06,-0.35 c 1.16,-0.25 2.33,-0.5 3.5,-0.75"/><path id="path336" style="fill:#f6876f;fill-opacity:1;fill-rule:nonzero;stroke:none" d="m 2667.63,2329.63 c 0,0 60.18,136.7 151.67,124.53 l 27.59,-98.84 c -50.08,-21.26 -57.41,-107.14 -128.51,-132.17 l -50.75,106.48"/><path id="path338" style="fill:#f6876f;fill-opacity:1;fill-rule:nonzero;stroke:none" d="m 2309.55,2354.76 c 0,0 -38,89.2 -138.02,115.09 -100.01,25.9 -163.73,-21.24 -170.45,-39.02 -6.71,-17.79 37.72,-0.79 37.72,-0.79 0,0 -28.94,-8.19 -45.54,-35.39 -16.6,-27.19 40.41,2.15 40.41,2.15 0,0 -40.88,-17.91 -46.08,-34.52 -5.2,-16.62 48.72,11.45 58.86,10.91 0,0 -48.15,-19.14 -47.82,-36.28 0.32,-17.13 55.31,10.81 96.36,8.61 41.06,-2.22 104.01,-19.22 104.01,-19.22 33.6,-6.4 65.71,-11.12 94.76,-12.47 l 15.79,40.93"/><path id="path340" style="fill:#385db4;fill-opacity:1;fill-rule:nonzero;stroke:none" d="m 3275.35,3854.9 c -25.41,0 -46.07,-20.67 -46.07,-46.08 0,-25.4 20.66,-46.07 46.07,-46.07 25.4,0 46.08,20.67 46.08,46.07 0,25.41 -20.68,46.08 -46.08,46.08 z m 0,-113.21 c -37.02,0 -67.14,30.12 -67.14,67.13 0,37.02 30.12,67.14 67.14,67.14 37.02,0 67.14,-30.12 67.14,-67.14 0,-37.01 -30.12,-67.13 -67.14,-67.13"/><path id="path342" style="fill:#3d89d1;fill-opacity:1;fill-rule:nonzero;stroke:none" d="m 3861.1,3968.96 c -25.41,0 -46.07,-20.66 -46.07,-46.07 0,-25.4 20.66,-46.07 46.07,-46.07 25.4,0 46.08,20.67 46.08,46.07 0,25.41 -20.68,46.07 -46.08,46.07 z m 0,-113.21 c -37.02,0 -67.14,30.12 -67.14,67.14 0,37.02 30.12,67.14 67.14,67.14 37.02,0 67.14,-30.12 67.14,-67.14 0,-37.02 -30.12,-67.14 -67.14,-67.14"/><path id="path344" style="fill:#385db4;fill-opacity:1;fill-rule:nonzero;stroke:none" d="m 3944.05,3637.58 c -5.81,0 -10.52,4.72 -10.52,10.54 v 46.44 c 0,5.82 4.71,10.53 10.52,10.53 5.81,0 10.53,-4.71 10.53,-10.53 v -46.44 c 0,-5.82 -4.72,-10.54 -10.53,-10.54"/><path id="path346" style="fill:#385db4;fill-opacity:1;fill-rule:nonzero;stroke:none" d="m 3944.05,3556.31 c -5.81,0 -10.52,4.72 -10.52,10.53 v 46.45 c 0,5.81 4.71,10.52 10.52,10.52 5.81,0 10.53,-4.71 10.53,-10.52 v -46.45 c 0,-5.81 -4.72,-10.53 -10.53,-10.53"/><path id="path348" style="fill:#385db4;fill-opacity:1;fill-rule:nonzero;stroke:none" d="m 4009.24,3620.17 h -41.72 c -5.81,0 -10.53,4.71 -10.53,10.53 0,5.82 4.72,10.53 10.53,10.53 h 41.72 c 5.82,0 10.54,-4.71 10.54,-10.53 0,-5.82 -4.72,-10.53 -10.54,-10.53"/><path id="path350" style="fill:#385db4;fill-opacity:1;fill-rule:nonzero;stroke:none" d="m 3920.59,3620.17 h -41.72 c -5.82,0 -10.54,4.71 -10.54,10.53 0,5.82 4.72,10.53 10.54,10.53 h 41.72 c 5.81,0 10.52,-4.71 10.52,-10.53 0,-5.82 -4.71,-10.53 -10.52,-10.53"/><path id="path352" style="fill:#373d9c;fill-opacity:1;fill-rule:nonzero;stroke:none" d="m 3589.43,3918.93 c -5.81,0 -10.52,4.72 -10.52,10.53 v 46.45 c 0,5.81 4.71,10.53 10.52,10.53 5.82,0 10.53,-4.72 10.53,-10.53 v -46.45 c 0,-5.81 -4.71,-10.53 -10.53,-10.53"/><path id="path354" style="fill:#373d9c;fill-opacity:1;fill-rule:nonzero;stroke:none" d="m 3589.43,3837.66 c -5.81,0 -10.52,4.71 -10.52,10.53 v 46.44 c 0,5.82 4.71,10.53 10.52,10.53 5.82,0 10.53,-4.71 10.53,-10.53 v -46.44 c 0,-5.82 -4.71,-10.53 -10.53,-10.53"/><path id="path356" style="fill:#373d9c;fill-opacity:1;fill-rule:nonzero;stroke:none" d="m 3654.62,3901.51 h -41.72 c -5.81,0 -10.53,4.72 -10.53,10.54 0,5.81 4.72,10.53 10.53,10.53 h 41.72 c 5.82,0 10.54,-4.72 10.54,-10.53 0,-5.82 -4.72,-10.54 -10.54,-10.54"/><path id="path358" style="fill:#373d9c;fill-opacity:1;fill-rule:nonzero;stroke:none" d="m 3565.97,3901.51 h -41.72 c -5.82,0 -10.54,4.72 -10.54,10.54 0,5.81 4.72,10.53 10.54,10.53 h 41.72 c 5.81,0 10.52,-4.72 10.52,-10.53 0,-5.82 -4.71,-10.54 -10.52,-10.54"/><path id="path360" style="fill:#385db4;fill-opacity:1;fill-rule:nonzero;stroke:none" d="m 896.746,3979.18 c 0,-25.4 20.672,-46.07 46.074,-46.07 25.407,0 46.075,20.67 46.075,46.07 0,25.41 -20.668,46.08 -46.075,46.08 -25.402,0 -46.074,-20.67 -46.074,-46.08 z m -21.062,0 c 0,37.03 30.117,67.14 67.136,67.14 37.02,0 67.14,-30.11 67.14,-67.14 0,-37.02 -30.12,-67.13 -67.14,-67.13 -37.019,0 -67.136,30.11 -67.136,67.13"/><path id="path362" style="fill:#3d89d1;fill-opacity:1;fill-rule:nonzero;stroke:none" d="m 627.129,3723.28 c 0,-25.4 20.668,-46.07 46.074,-46.07 25.406,0 46.074,20.67 46.074,46.07 0,25.41 -20.668,46.08 -46.074,46.08 -25.406,0 -46.074,-20.67 -46.074,-46.08 z m -21.066,0 c 0,37.02 30.125,67.14 67.14,67.14 37.016,0 67.141,-30.12 67.141,-67.14 0,-37.02 -30.125,-67.14 -67.141,-67.14 -37.015,0 -67.14,30.12 -67.14,67.14"/><path id="path364" style="fill:#385db4;fill-opacity:1;fill-rule:nonzero;stroke:none" d="m 466.484,3629.07 c 5.817,0 10.532,4.71 10.532,10.53 v 46.44 c 0,5.82 -4.715,10.53 -10.532,10.53 -5.816,0 -10.531,-4.71 -10.531,-10.53 v -46.44 c 0,-5.82 4.715,-10.53 10.531,-10.53"/><path id="path366" style="fill:#385db4;fill-opacity:1;fill-rule:nonzero;stroke:none" d="m 466.484,3547.79 c 5.817,0 10.532,4.71 10.532,10.54 v 46.44 c 0,5.81 -4.715,10.53 -10.532,10.53 -5.816,0 -10.531,-4.72 -10.531,-10.53 v -46.44 c 0,-5.83 4.715,-10.54 10.531,-10.54"/><path id="path368" style="fill:#385db4;fill-opacity:1;fill-rule:nonzero;stroke:none" d="m 401.293,3611.65 h 41.719 c 5.816,0 10.535,4.72 10.535,10.53 0,5.82 -4.719,10.53 -10.535,10.53 h -41.719 c -5.813,0 -10.531,-4.71 -10.531,-10.53 0,-5.81 4.718,-10.53 10.531,-10.53"/><path id="path370" style="fill:#385db4;fill-opacity:1;fill-rule:nonzero;stroke:none" d="m 489.949,3611.65 h 41.727 c 5.812,0 10.527,4.72 10.527,10.53 0,5.82 -4.715,10.53 -10.527,10.53 h -41.727 c -5.812,0 -10.523,-4.71 -10.523,-10.53 0,-5.81 4.711,-10.53 10.523,-10.53"/><path id="path372" style="fill:#373d9c;fill-opacity:1;fill-rule:nonzero;stroke:none" d="m 709.148,3986.07 c 5.813,0 10.532,4.72 10.532,10.53 v 46.44 c 0,5.82 -4.719,10.53 -10.532,10.53 -5.812,0 -10.531,-4.71 -10.531,-10.53 v -46.44 c 0,-5.81 4.719,-10.53 10.531,-10.53"/><path id="path374" style="fill:#373d9c;fill-opacity:1;fill-rule:nonzero;stroke:none" d="m 709.148,3904.79 c 5.813,0 10.532,4.72 10.532,10.54 v 46.44 c 0,5.81 -4.719,10.53 -10.532,10.53 -5.812,0 -10.531,-4.72 -10.531,-10.53 v -46.44 c 0,-5.82 4.719,-10.54 10.531,-10.54"/><path id="path376" style="fill:#373d9c;fill-opacity:1;fill-rule:nonzero;stroke:none" d="m 643.961,3968.65 h 41.719 c 5.812,0 10.531,4.72 10.531,10.53 0,5.82 -4.719,10.54 -10.531,10.54 h -41.719 c -5.816,0 -10.531,-4.72 -10.531,-10.54 0,-5.81 4.715,-10.53 10.531,-10.53"/><path id="path378" style="fill:#373d9c;fill-opacity:1;fill-rule:nonzero;stroke:none" d="m 732.617,3968.65 h 41.719 c 5.816,0 10.531,4.72 10.531,10.53 0,5.82 -4.715,10.54 -10.531,10.54 h -41.719 c -5.816,0 -10.531,-4.72 -10.531,-10.54 0,-5.81 4.715,-10.53 10.531,-10.53"/><path id="path380" style="fill:#abdde7;fill-opacity:1;fill-rule:nonzero;stroke:none" d="m 2716.89,3974.36 c -1.21,-0.13 -2.47,0.04 -3.68,0.55 -12.78,5.39 -20.27,7.91 -20.35,7.93 -3.91,1.31 -6.02,5.54 -4.73,9.46 1.32,3.92 5.55,6.03 9.47,4.73 0.32,-0.11 8.04,-2.7 21.42,-8.34 3.81,-1.61 5.6,-5.99 3.99,-9.8 -1.1,-2.6 -3.49,-4.26 -6.12,-4.53"/><path id="path382" style="fill:#abdde7;fill-opacity:1;fill-rule:nonzero;stroke:none" d="m 3097.99,3573.28 c 5.09,-13.57 9.85,-27.56 14.16,-41.59 1.07,-3.48 4.44,-5.61 7.93,-5.24 0.47,0.04 0.95,0.14 1.41,0.29 3.95,1.21 6.18,5.39 4.96,9.34 -4.4,14.32 -9.26,28.6 -14.45,42.45 -1.45,3.86 -5.74,5.82 -9.63,4.37 -3.86,-1.45 -5.83,-5.76 -4.38,-9.62"/><path id="path384" style="fill:#abdde7;fill-opacity:1;fill-rule:nonzero;stroke:none" d="m 3123.8,3489.32 c 3.43,-14.05 6.53,-28.51 9.21,-42.99 0.71,-3.86 4.28,-6.48 8.13,-6.08 0.19,0.03 0.38,0.05 0.59,0.09 4.05,0.75 6.74,4.66 5.98,8.71 -2.73,14.75 -5.88,29.49 -9.38,43.81 -0.98,4.01 -5.03,6.47 -9.03,5.49 -4.02,-0.97 -6.48,-5.02 -5.5,-9.03"/><path id="path386" style="fill:#abdde7;fill-opacity:1;fill-rule:nonzero;stroke:none" d="m 3155.34,3263.5 c 3.71,0.39 6.62,3.5 6.68,7.32 0.24,15.01 0.13,30.06 -0.32,44.75 -0.12,4.13 -3.58,7.37 -7.7,7.25 -4.19,-0.15 -7.37,-3.58 -7.24,-7.7 0.43,-14.47 0.53,-29.29 0.31,-44.07 -0.06,-4.13 3.23,-7.52 7.36,-7.59 0.31,-0.01 0.61,0.01 0.91,0.04"/><path id="path388" style="fill:#abdde7;fill-opacity:1;fill-rule:nonzero;stroke:none" d="m 3146.29,3411.27 c -4.1,-0.53 -6.99,-4.29 -6.46,-8.38 0.88,-6.76 1.68,-13.59 2.39,-20.3 0.82,-7.75 1.55,-15.65 2.16,-23.49 0.32,-4.11 3.92,-7.19 8.04,-6.87 0.07,0.01 0.14,0.02 0.21,0.02 4.01,0.43 6.98,3.98 6.66,8.02 -0.63,7.98 -1.36,16.01 -2.2,23.89 -0.71,6.83 -1.53,13.77 -2.43,20.66 -0.52,4.03 -4.17,6.89 -8.2,6.47 -0.05,-0.01 -0.12,-0.01 -0.17,-0.02"/><path id="path390" style="fill:#abdde7;fill-opacity:1;fill-rule:nonzero;stroke:none" d="m 3081.31,3613.91 c 1.36,-3.04 4.48,-4.72 7.61,-4.39 0.77,0.08 1.53,0.28 2.27,0.61 3.77,1.69 5.46,6.11 3.77,9.88 -6.09,13.62 -12.68,27.2 -19.61,40.35 -1.92,3.66 -6.43,5.06 -10.1,3.14 -3.65,-1.92 -5.05,-6.44 -3.13,-10.1 6.77,-12.88 13.22,-26.16 19.19,-39.49"/><path id="path392" style="fill:#abdde7;fill-opacity:1;fill-rule:nonzero;stroke:none" d="m 2752.93,3956.32 c 12.84,-6.55 25.8,-13.7 38.52,-21.23 1.44,-0.85 3.04,-1.16 4.58,-1 2.28,0.24 4.41,1.51 5.67,3.62 2.1,3.56 0.93,8.14 -2.63,10.25 -12.99,7.68 -26.22,14.98 -39.33,21.68 -3.68,1.88 -8.19,0.42 -10.06,-3.25 -1.88,-3.68 -0.42,-8.18 3.25,-10.07"/><path id="path394" style="fill:#abdde7;fill-opacity:1;fill-rule:nonzero;stroke:none" d="m 2864.36,3885.91 c 1.59,-1.2 3.5,-1.68 5.34,-1.49 1.97,0.21 3.85,1.2 5.15,2.9 2.5,3.28 1.88,7.97 -1.4,10.48 -11.85,9.04 -24.1,17.84 -36.45,26.17 -3.43,2.3 -8.06,1.41 -10.38,-2.02 -2.31,-3.42 -1.41,-8.07 2.02,-10.38 12.1,-8.16 24.12,-16.79 35.72,-25.66"/><path id="path396" style="fill:#abdde7;fill-opacity:1;fill-rule:nonzero;stroke:none" d="m 2990.02,3763.48 c 1.65,-2.06 4.18,-3.02 6.63,-2.76 1.37,0.14 2.72,0.67 3.88,1.6 3.22,2.58 3.75,7.28 1.16,10.51 -9.29,11.6 -19.09,23.09 -29.12,34.13 -2.79,3.06 -7.51,3.29 -10.57,0.51 -3.05,-2.78 -3.28,-7.51 -0.51,-10.57 9.84,-10.81 19.43,-22.06 28.53,-33.42"/><path id="path398" style="fill:#abdde7;fill-opacity:1;fill-rule:nonzero;stroke:none" d="m 2930.95,3828.5 c 1.65,-1.61 3.87,-2.3 6,-2.07 1.68,0.17 3.3,0.91 4.57,2.22 2.88,2.96 2.82,7.69 -0.14,10.57 -10.64,10.35 -21.77,20.55 -33.1,30.31 -3.12,2.7 -7.85,2.34 -10.54,-0.79 -2.7,-3.12 -2.35,-7.85 0.79,-10.54 11.09,-9.57 22,-19.56 32.42,-29.7"/><path id="path400" style="fill:#abdde7;fill-opacity:1;fill-rule:nonzero;stroke:none" d="m 3040.45,3691.6 c 1.55,-2.55 4.39,-3.84 7.17,-3.54 1.07,0.11 2.13,0.46 3.11,1.05 3.53,2.15 4.63,6.76 2.48,10.28 -7.76,12.71 -16.03,25.35 -24.59,37.54 -2.36,3.38 -7.02,4.2 -10.41,1.83 -3.39,-2.38 -4.2,-7.04 -1.82,-10.42 8.37,-11.93 16.46,-24.3 24.06,-36.74"/><path id="path402" style="fill:#3d89d1;fill-opacity:1;fill-rule:nonzero;stroke:none" d="m 2716.75,4025.52 32.72,121.2 -400.97,-3.44 z"/><path id="path404" style="fill:#385db4;fill-opacity:1;fill-rule:nonzero;stroke:none" d="m 2348.5,4143.29 348.79,-147.03 0.92,-0.4 15,-24.85 3.54,54.51 -368.25,117.77"/><path id="path406" style="fill:#385db4;fill-opacity:1;fill-rule:nonzero;stroke:none" d="m 2713.21,3971.01 -32.51,5.12 17.51,19.73 z"/><path id="path408" style="fill:#3d89d1;fill-opacity:1;fill-rule:nonzero;stroke:none" d="m 2654.33,4014.36 43.89,-18.5 -90.4,-101.84 -259.32,249.26 305.83,-128.92"/><path id="path410" style="fill:#373d9c;fill-opacity:1;fill-rule:nonzero;stroke:none" d="m 4560.56,836.871 v -7.301 c 0,-42.148 -34.18,-76.32 -76.35,-76.32 H 524.73 c -42.164,0 -76.316,34.172 -76.316,76.32 v 7.301 c 0,42.141 34.152,76.32 76.316,76.32 h 3959.48 c 42.17,0 76.35,-34.179 76.35,-76.32"/><path id="path412" style="fill:#385db4;fill-opacity:1;fill-rule:nonzero;stroke:none" d="m 4560.56,836.871 v -3.652 H 448.414 v 3.652 c 0,42.141 34.152,76.32 76.316,76.32 h 3959.48 c 42.17,0 76.35,-34.179 76.35,-76.32"/><path id="path414" style="fill:#2f335d;fill-opacity:1;fill-rule:nonzero;stroke:none" d="M 3110.44,1153.29 H 1866.59 c -29.72,0 -53.82,24.09 -53.82,53.81 v 650.77 c 0,29.72 24.1,53.81 53.82,53.81 h 1243.85 c 29.72,0 53.81,-24.09 53.81,-53.81 V 1207.1 c 0,-29.72 -24.09,-53.81 -53.81,-53.81"/><path id="path416" style="fill:#1c1a2c;fill-opacity:1;fill-rule:nonzero;stroke:none" d="m 2593.16,915.551 h -209.3 v 238.599 h 209.3 V 915.551"/><path id="path418" style="fill:#35527f;fill-opacity:1;fill-rule:nonzero;stroke:none" d="m 2590.06,1523.19 c 0,-57.37 -46.52,-103.88 -103.88,-103.88 -57.38,0 -103.89,46.51 -103.89,103.88 0,57.37 46.51,103.88 103.89,103.88 57.36,0 103.88,-46.51 103.88,-103.88"/><path id="path420" style="fill:#2f335d;fill-opacity:1;fill-rule:nonzero;stroke:none" d="m 2755.11,915.551 h -539.88 v 18.187 c 0,36.703 29.75,66.462 66.45,66.462 h 406.97 c 36.7,0 66.46,-29.759 66.46,-66.462 v -18.187"/></g></g></svg>